<?xml version="1.0" encoding="UTF-8" standalone="no"?>
<!-- Created with Inkscape (http://www.inkscape.org/) -->

<svg
   xmlns:dc="http://purl.org/dc/elements/1.1/"
   xmlns:cc="http://creativecommons.org/ns#"
   xmlns:rdf="http://www.w3.org/1999/02/22-rdf-syntax-ns#"
   xmlns:svg="http://www.w3.org/2000/svg"
   xmlns="http://www.w3.org/2000/svg"
   xmlns:sodipodi="http://sodipodi.sourceforge.net/DTD/sodipodi-0.dtd"
   xmlns:inkscape="http://www.inkscape.org/namespaces/inkscape"
   width="210mm"
   height="297mm"
   viewBox="0 0 210 297"
   version="1.1"
   id="svg8"
   inkscape:version="0.92.5 (2060ec1f9f, 2020-04-08)"
   sodipodi:docname="artwork.svg">
  <defs
     id="defs2" />
  <sodipodi:namedview
     id="base"
     pagecolor="#ffffff"
     bordercolor="#666666"
     borderopacity="1.0"
     inkscape:pageopacity="0.0"
     inkscape:pageshadow="2"
     inkscape:zoom="0.70710681"
     inkscape:cx="627.35968"
     inkscape:cy="542.82158"
     inkscape:document-units="mm"
     inkscape:current-layer="layer1"
     showgrid="false"
     inkscape:snap-bbox="true"
     inkscape:snap-bbox-midpoints="true"
     inkscape:window-width="1920"
     inkscape:window-height="1015"
     inkscape:window-x="0"
     inkscape:window-y="0"
     inkscape:window-maximized="1">
    <inkscape:grid
       type="xygrid"
       id="grid815"
       units="mm"
       spacingx="1"
       spacingy="1"
       visible="true" />
  </sodipodi:namedview>
  <metadata
     id="metadata5">
    <rdf:RDF>
      <cc:Work
         rdf:about="">
        <dc:format>image/svg+xml</dc:format>
        <dc:type
           rdf:resource="http://purl.org/dc/dcmitype/StillImage" />
        <dc:title></dc:title>
      </cc:Work>
    </rdf:RDF>
  </metadata>
  <g
     inkscape:label="Layer 1"
     inkscape:groupmode="layer"
     id="layer1">
    <text
       xml:space="preserve"
       style="font-style:normal;font-variant:normal;font-weight:normal;font-stretch:normal;font-size:10.58333302px;line-height:1.25;font-family:DCHBasisschrift;-inkscape-font-specification:DCHBasisschrift;letter-spacing:0.26458333px;word-spacing:0px;fill:#000000;fill-opacity:1;stroke:none;stroke-width:0.26458332;"
       x="261.9375"
       y="132.95834"
       id="text834"><tspan
         sodipodi:role="line"
         id="tspan832"
         x="261.9375"
         y="141.32976"
         style="stroke-width:0.26458332;letter-spacing:0.26458333px;" /></text>
    <g
       id="g1184"
       transform="translate(-210.64681,-22.330031)"
       inkscape:export-xdpi="300"
       inkscape:export-ydpi="300">
      <path
         sodipodi:nodetypes="cccccccccc"
         inkscape:connector-curvature="0"
         id="path925"
         d="m 323.25141,102.56707 c -2.51449,-27.164933 -61.39821,-29.912915 -56.54162,7.95533 -40,-14.999884 -53.46347,40.30367 -29.14194,45.16798 -19.99976,29.99986 20.42533,19.25145 20.42557,34.25152 v 14.25177 l 101.45151,-0.18709 v -13.87759 c 0.0382,-16.98737 27.39895,-0.21979 16.09369,-25.65488 30.5032,5.98074 36.25797,-55.32123 5.8419,-50.32278 9.96378,-25.470871 -43.32022,-44.068634 -58.12911,-11.58426 z"
         style="fill:none;fill-opacity:0.4831461;fill-rule:evenodd;stroke:#000000;stroke-width:3;stroke-miterlimit:4;stroke-dasharray:none;stroke-opacity:1" />
      <g
         transform="translate(45.772916,114.56458)"
         id="g878">
        <text
           xml:space="preserve"
           style="font-style:normal;font-variant:normal;font-weight:normal;font-stretch:normal;font-size:10.58333302px;line-height:1.25;font-family:DCHBasisschrift;-inkscape-font-specification:DCHBasisschrift;letter-spacing:0.26458332px;word-spacing:0px;fill:#000000;fill-opacity:1;stroke:none;stroke-width:0.26458332"
           x="308.92395"
           y="24.444063"
           id="text838"><tspan
             sodipodi:role="line"
             x="309.18854"
             y="24.444063"
             style="text-align:end;text-anchor:end;stroke-width:0.26458332"
             id="tspan844">410ppm</tspan><tspan
             sodipodi:role="line"
             x="309.18854"
             y="37.673229"
             style="text-align:end;text-anchor:end;stroke-width:0.26458332"
             id="tspan846">&lt; 1000ppm</tspan><tspan
             sodipodi:role="line"
             x="309.18854"
             y="50.902397"
             style="text-align:end;text-anchor:end;stroke-width:0.26458332"
             id="tspan856">&gt; 1500ppm</tspan><tspan
             sodipodi:role="line"
             x="309.18854"
             y="64.131561"
             style="text-align:end;text-anchor:end;stroke-width:0.26458332"
             id="tspan848">&gt; 2000ppm</tspan></text>
        <text
           id="text866"
           y="24.444063"
           x="217.9073"
           style="font-style:normal;font-variant:normal;font-weight:normal;font-stretch:normal;font-size:10.58333302px;line-height:1.25;font-family:DCHBasisschrift;-inkscape-font-specification:DCHBasisschrift;letter-spacing:0.26458332px;word-spacing:0px;fill:#000000;fill-opacity:1;stroke:none;stroke-width:0.26458332"
           xml:space="preserve"><tspan
             id="tspan858"
             style="text-align:start;text-anchor:start;stroke-width:0.26458332"
             y="24.444063"
             x="217.9073"
             sodipodi:role="line">Aussenluft:</tspan><tspan
             id="tspan860"
             style="text-align:start;text-anchor:start;stroke-width:0.26458332"
             y="37.673229"
             x="217.9073"
             sodipodi:role="line">Gut:</tspan><tspan
             id="tspan862"
             style="text-align:start;text-anchor:start;stroke-width:0.26458332"
             y="50.902397"
             x="217.9073"
             sodipodi:role="line">Bedenklich:</tspan><tspan
             id="tspan864"
             style="text-align:start;text-anchor:start;stroke-width:0.26458332"
             y="64.131561"
             x="217.9073"
             sodipodi:role="line">Schlecht:</tspan></text>
      </g>
      <g
         transform="matrix(1.2483698,0.27481898,-0.27481898,1.2483698,11.098123,10.268794)"
         id="g921">
        <path
           inkscape:connector-curvature="0"
           id="path892"
           style="fill:none;stroke:#000000;stroke-width:1.5;stroke-linecap:butt;stroke-linejoin:miter;stroke-miterlimit:4;stroke-dasharray:none;stroke-opacity:1"
           d="m 293.00001,29 h 10 M 293,25 h 10 m -35.99999,4 h 10 M 267,25 h 10 m 36,2 a 5,5 0 0 1 -5,5 5,5 0 0 1 -5,-5 5,5 0 0 1 5,-5 5,5 0 0 1 5,5 z m -46.00003,0 a 5,5 0 0 1 -5,5 5,5 0 0 1 -5,-5 5,5 0 0 1 5,-5 5,5 0 0 1 5,5 z M 293,26.999998 a 8,7.9999981 0 0 1 -8,7.999998 8,7.9999981 0 0 1 -8,-7.999998 A 8,7.9999981 0 0 1 285,19 a 8,7.9999981 0 0 1 8,7.999998 z" />
        <text
           xml:space="preserve"
           style="font-style:normal;font-variant:normal;font-weight:normal;font-stretch:normal;font-size:15.22305679px;line-height:1.25;font-family:DCHBasisschrift;-inkscape-font-specification:DCHBasisschrift;letter-spacing:0.3805764px;word-spacing:0px;fill:#000000;fill-opacity:1;stroke:none;stroke-width:0.3805764"
           x="280.69534"
           y="32.064205"
           id="text896"><tspan
             sodipodi:role="line"
             id="tspan894"
             x="280.69534"
             y="32.064205"
             style="stroke-width:0.3805764">C</tspan></text>
        <text
           xml:space="preserve"
           style="font-style:normal;font-variant:normal;font-weight:normal;font-stretch:normal;font-size:7.44053936px;line-height:1.25;font-family:DCHBasisschrift;-inkscape-font-specification:DCHBasisschrift;letter-spacing:0.18601348px;word-spacing:0px;fill:#000000;fill-opacity:1;stroke:none;stroke-width:0.18601348"
           x="259.89432"
           y="29.477699"
           id="text900"><tspan
             sodipodi:role="line"
             id="tspan898"
             x="259.89432"
             y="29.477699"
             style="stroke-width:0.18601348">O</tspan></text>
        <text
           id="text912"
           y="29.477699"
           x="305.89432"
           style="font-style:normal;font-variant:normal;font-weight:normal;font-stretch:normal;font-size:7.44053936px;line-height:1.25;font-family:DCHBasisschrift;-inkscape-font-specification:DCHBasisschrift;letter-spacing:0.18601348px;word-spacing:0px;fill:#000000;fill-opacity:1;stroke:none;stroke-width:0.18601348"
           xml:space="preserve"><tspan
             style="stroke-width:0.18601348"
             y="29.477699"
             x="305.89432"
             id="tspan910"
             sodipodi:role="line">O</tspan></text>
      </g>
      <g
         id="g937"
         transform="matrix(0.60886941,-0.3377514,0.3377514,0.60886941,67.352939,206.81967)">
        <path
           d="m 293.00001,29 h 10 M 293,25 h 10 m -35.99999,4 h 10 M 267,25 h 10 m 36,2 a 5,5 0 0 1 -5,5 5,5 0 0 1 -5,-5 5,5 0 0 1 5,-5 5,5 0 0 1 5,5 z m -46.00003,0 a 5,5 0 0 1 -5,5 5,5 0 0 1 -5,-5 5,5 0 0 1 5,-5 5,5 0 0 1 5,5 z M 293,26.999998 a 8,7.9999981 0 0 1 -8,7.999998 8,7.9999981 0 0 1 -8,-7.999998 A 8,7.9999981 0 0 1 285,19 a 8,7.9999981 0 0 1 8,7.999998 z"
           style="fill:none;stroke:#000000;stroke-width:1.5;stroke-linecap:butt;stroke-linejoin:miter;stroke-miterlimit:4;stroke-dasharray:none;stroke-opacity:1"
           id="path923"
           inkscape:connector-curvature="0" />
        <text
           id="text927"
           y="32.064205"
           x="280.69534"
           style="font-style:normal;font-variant:normal;font-weight:normal;font-stretch:normal;font-size:15.22305679px;line-height:1.25;font-family:DCHBasisschrift;-inkscape-font-specification:DCHBasisschrift;letter-spacing:0.3805764px;word-spacing:0px;fill:#000000;fill-opacity:1;stroke:none;stroke-width:0.3805764"
           xml:space="preserve"><tspan
             style="stroke-width:0.3805764"
             y="32.064205"
             x="280.69534"
             id="tspan925"
             sodipodi:role="line">C</tspan></text>
        <text
           id="text931"
           y="29.477699"
           x="259.89432"
           style="font-style:normal;font-variant:normal;font-weight:normal;font-stretch:normal;font-size:7.44053936px;line-height:1.25;font-family:DCHBasisschrift;-inkscape-font-specification:DCHBasisschrift;letter-spacing:0.18601348px;word-spacing:0px;fill:#000000;fill-opacity:1;stroke:none;stroke-width:0.18601348"
           xml:space="preserve"><tspan
             style="stroke-width:0.18601348"
             y="29.477699"
             x="259.89432"
             id="tspan929"
             sodipodi:role="line">O</tspan></text>
        <text
           xml:space="preserve"
           style="font-style:normal;font-variant:normal;font-weight:normal;font-stretch:normal;font-size:7.44053936px;line-height:1.25;font-family:DCHBasisschrift;-inkscape-font-specification:DCHBasisschrift;letter-spacing:0.18601348px;word-spacing:0px;fill:#000000;fill-opacity:1;stroke:none;stroke-width:0.18601348"
           x="305.89432"
           y="29.477699"
           id="text935"><tspan
             sodipodi:role="line"
             id="tspan933"
             x="305.89432"
             y="29.477699"
             style="stroke-width:0.18601348">O</tspan></text>
      </g>
      <g
         transform="matrix(0.58918769,0.55295834,-0.55295834,0.58918769,148.64062,-64.806235)"
         id="g953">
        <path
           inkscape:connector-curvature="0"
           id="path939"
           style="fill:none;stroke:#000000;stroke-width:1.5;stroke-linecap:butt;stroke-linejoin:miter;stroke-miterlimit:4;stroke-dasharray:none;stroke-opacity:1"
           d="m 293.00001,29 h 10 M 293,25 h 10 m -35.99999,4 h 10 M 267,25 h 10 m 36,2 a 5,5 0 0 1 -5,5 5,5 0 0 1 -5,-5 5,5 0 0 1 5,-5 5,5 0 0 1 5,5 z m -46.00003,0 a 5,5 0 0 1 -5,5 5,5 0 0 1 -5,-5 5,5 0 0 1 5,-5 5,5 0 0 1 5,5 z M 293,26.999998 a 8,7.9999981 0 0 1 -8,7.999998 8,7.9999981 0 0 1 -8,-7.999998 A 8,7.9999981 0 0 1 285,19 a 8,7.9999981 0 0 1 8,7.999998 z" />
        <text
           xml:space="preserve"
           style="font-style:normal;font-variant:normal;font-weight:normal;font-stretch:normal;font-size:15.22305679px;line-height:1.25;font-family:DCHBasisschrift;-inkscape-font-specification:DCHBasisschrift;letter-spacing:0.3805764px;word-spacing:0px;fill:#000000;fill-opacity:1;stroke:none;stroke-width:0.3805764"
           x="280.69534"
           y="32.064205"
           id="text943"><tspan
             sodipodi:role="line"
             id="tspan941"
             x="280.69534"
             y="32.064205"
             style="stroke-width:0.3805764">C</tspan></text>
        <text
           xml:space="preserve"
           style="font-style:normal;font-variant:normal;font-weight:normal;font-stretch:normal;font-size:7.44053936px;line-height:1.25;font-family:DCHBasisschrift;-inkscape-font-specification:DCHBasisschrift;letter-spacing:0.18601348px;word-spacing:0px;fill:#000000;fill-opacity:1;stroke:none;stroke-width:0.18601348"
           x="259.89432"
           y="29.477699"
           id="text947"><tspan
             sodipodi:role="line"
             id="tspan945"
             x="259.89432"
             y="29.477699"
             style="stroke-width:0.18601348">O</tspan></text>
        <text
           id="text951"
           y="29.477699"
           x="305.89432"
           style="font-style:normal;font-variant:normal;font-weight:normal;font-stretch:normal;font-size:7.44053936px;line-height:1.25;font-family:DCHBasisschrift;-inkscape-font-specification:DCHBasisschrift;letter-spacing:0.18601348px;word-spacing:0px;fill:#000000;fill-opacity:1;stroke:none;stroke-width:0.18601348"
           xml:space="preserve"><tspan
             style="stroke-width:0.18601348"
             y="29.477699"
             x="305.89432"
             id="tspan949"
             sodipodi:role="line">O</tspan></text>
      </g>
      <g
         id="g969"
         transform="matrix(0.43079989,-0.22786823,0.22786823,0.43079989,222.80896,153.80371)">
        <path
           d="m 293.00001,29 h 10 M 293,25 h 10 m -35.99999,4 h 10 M 267,25 h 10 m 36,2 a 5,5 0 0 1 -5,5 5,5 0 0 1 -5,-5 5,5 0 0 1 5,-5 5,5 0 0 1 5,5 z m -46.00003,0 a 5,5 0 0 1 -5,5 5,5 0 0 1 -5,-5 5,5 0 0 1 5,-5 5,5 0 0 1 5,5 z M 293,26.999998 a 8,7.9999981 0 0 1 -8,7.999998 8,7.9999981 0 0 1 -8,-7.999998 A 8,7.9999981 0 0 1 285,19 a 8,7.9999981 0 0 1 8,7.999998 z"
           style="fill:none;stroke:#000000;stroke-width:1.5;stroke-linecap:butt;stroke-linejoin:miter;stroke-miterlimit:4;stroke-dasharray:none;stroke-opacity:1"
           id="path955"
           inkscape:connector-curvature="0" />
        <text
           id="text959"
           y="32.064205"
           x="280.69534"
           style="font-style:normal;font-variant:normal;font-weight:normal;font-stretch:normal;font-size:15.22305679px;line-height:1.25;font-family:DCHBasisschrift;-inkscape-font-specification:DCHBasisschrift;letter-spacing:0.3805764px;word-spacing:0px;fill:#000000;fill-opacity:1;stroke:none;stroke-width:0.3805764"
           xml:space="preserve"><tspan
             style="stroke-width:0.3805764"
             y="32.064205"
             x="280.69534"
             id="tspan957"
             sodipodi:role="line">C</tspan></text>
        <text
           id="text963"
           y="29.477699"
           x="259.89432"
           style="font-style:normal;font-variant:normal;font-weight:normal;font-stretch:normal;font-size:7.44053936px;line-height:1.25;font-family:DCHBasisschrift;-inkscape-font-specification:DCHBasisschrift;letter-spacing:0.18601348px;word-spacing:0px;fill:#000000;fill-opacity:1;stroke:none;stroke-width:0.18601348"
           xml:space="preserve"><tspan
             style="stroke-width:0.18601348"
             y="29.477699"
             x="259.89432"
             id="tspan961"
             sodipodi:role="line">O</tspan></text>
        <text
           xml:space="preserve"
           style="font-style:normal;font-variant:normal;font-weight:normal;font-stretch:normal;font-size:7.44053936px;line-height:1.25;font-family:DCHBasisschrift;-inkscape-font-specification:DCHBasisschrift;letter-spacing:0.18601348px;word-spacing:0px;fill:#000000;fill-opacity:1;stroke:none;stroke-width:0.18601348"
           x="305.89432"
           y="29.477699"
           id="text967"><tspan
             sodipodi:role="line"
             id="tspan965"
             x="305.89432"
             y="29.477699"
             style="stroke-width:0.18601348">O</tspan></text>
      </g>
      <g
         transform="matrix(0.32170815,-0.36608243,0.36608243,0.32170815,266.04332,240.06106)"
         id="g985">
        <path
           inkscape:connector-curvature="0"
           id="path971"
           style="fill:none;stroke:#000000;stroke-width:1.5;stroke-linecap:butt;stroke-linejoin:miter;stroke-miterlimit:4;stroke-dasharray:none;stroke-opacity:1"
           d="m 293.00001,29 h 10 M 293,25 h 10 m -35.99999,4 h 10 M 267,25 h 10 m 36,2 a 5,5 0 0 1 -5,5 5,5 0 0 1 -5,-5 5,5 0 0 1 5,-5 5,5 0 0 1 5,5 z m -46.00003,0 a 5,5 0 0 1 -5,5 5,5 0 0 1 -5,-5 5,5 0 0 1 5,-5 5,5 0 0 1 5,5 z M 293,26.999998 a 8,7.9999981 0 0 1 -8,7.999998 8,7.9999981 0 0 1 -8,-7.999998 A 8,7.9999981 0 0 1 285,19 a 8,7.9999981 0 0 1 8,7.999998 z" />
        <text
           xml:space="preserve"
           style="font-style:normal;font-variant:normal;font-weight:normal;font-stretch:normal;font-size:15.22305679px;line-height:1.25;font-family:DCHBasisschrift;-inkscape-font-specification:DCHBasisschrift;letter-spacing:0.3805764px;word-spacing:0px;fill:#000000;fill-opacity:1;stroke:none;stroke-width:0.3805764"
           x="280.69534"
           y="32.064205"
           id="text975"><tspan
             sodipodi:role="line"
             id="tspan973"
             x="280.69534"
             y="32.064205"
             style="stroke-width:0.3805764">C</tspan></text>
        <text
           xml:space="preserve"
           style="font-style:normal;font-variant:normal;font-weight:normal;font-stretch:normal;font-size:7.44053936px;line-height:1.25;font-family:DCHBasisschrift;-inkscape-font-specification:DCHBasisschrift;letter-spacing:0.18601348px;word-spacing:0px;fill:#000000;fill-opacity:1;stroke:none;stroke-width:0.18601348"
           x="259.89432"
           y="29.477699"
           id="text979"><tspan
             sodipodi:role="line"
             id="tspan977"
             x="259.89432"
             y="29.477699"
             style="stroke-width:0.18601348">O</tspan></text>
        <text
           id="text983"
           y="29.477699"
           x="305.89432"
           style="font-style:normal;font-variant:normal;font-weight:normal;font-stretch:normal;font-size:7.44053936px;line-height:1.25;font-family:DCHBasisschrift;-inkscape-font-specification:DCHBasisschrift;letter-spacing:0.18601348px;word-spacing:0px;fill:#000000;fill-opacity:1;stroke:none;stroke-width:0.18601348"
           xml:space="preserve"><tspan
             style="stroke-width:0.18601348"
             y="29.477699"
             x="305.89432"
             id="tspan981"
             sodipodi:role="line">O</tspan></text>
      </g>
      <g
         id="g1001"
         transform="matrix(0.39509157,0.28533337,-0.28533337,0.39509157,144.97769,58.511632)">
        <path
           d="m 293.00001,29 h 10 M 293,25 h 10 m -35.99999,4 h 10 M 267,25 h 10 m 36,2 a 5,5 0 0 1 -5,5 5,5 0 0 1 -5,-5 5,5 0 0 1 5,-5 5,5 0 0 1 5,5 z m -46.00003,0 a 5,5 0 0 1 -5,5 5,5 0 0 1 -5,-5 5,5 0 0 1 5,-5 5,5 0 0 1 5,5 z M 293,26.999998 a 8,7.9999981 0 0 1 -8,7.999998 8,7.9999981 0 0 1 -8,-7.999998 A 8,7.9999981 0 0 1 285,19 a 8,7.9999981 0 0 1 8,7.999998 z"
           style="fill:none;stroke:#000000;stroke-width:1.5;stroke-linecap:butt;stroke-linejoin:miter;stroke-miterlimit:4;stroke-dasharray:none;stroke-opacity:1"
           id="path987"
           inkscape:connector-curvature="0" />
        <text
           id="text991"
           y="32.064205"
           x="280.69534"
           style="font-style:normal;font-variant:normal;font-weight:normal;font-stretch:normal;font-size:15.22305679px;line-height:1.25;font-family:DCHBasisschrift;-inkscape-font-specification:DCHBasisschrift;letter-spacing:0.3805764px;word-spacing:0px;fill:#000000;fill-opacity:1;stroke:none;stroke-width:0.3805764"
           xml:space="preserve"><tspan
             style="stroke-width:0.3805764"
             y="32.064205"
             x="280.69534"
             id="tspan989"
             sodipodi:role="line">C</tspan></text>
        <text
           id="text995"
           y="29.477699"
           x="259.89432"
           style="font-style:normal;font-variant:normal;font-weight:normal;font-stretch:normal;font-size:7.44053936px;line-height:1.25;font-family:DCHBasisschrift;-inkscape-font-specification:DCHBasisschrift;letter-spacing:0.18601348px;word-spacing:0px;fill:#000000;fill-opacity:1;stroke:none;stroke-width:0.18601348"
           xml:space="preserve"><tspan
             style="stroke-width:0.18601348"
             y="29.477699"
             x="259.89432"
             id="tspan993"
             sodipodi:role="line">O</tspan></text>
        <text
           xml:space="preserve"
           style="font-style:normal;font-variant:normal;font-weight:normal;font-stretch:normal;font-size:7.44053936px;line-height:1.25;font-family:DCHBasisschrift;-inkscape-font-specification:DCHBasisschrift;letter-spacing:0.18601348px;word-spacing:0px;fill:#000000;fill-opacity:1;stroke:none;stroke-width:0.18601348"
           x="305.89432"
           y="29.477699"
           id="text999"><tspan
             sodipodi:role="line"
             id="tspan997"
             x="305.89432"
             y="29.477699"
             style="stroke-width:0.18601348">O</tspan></text>
      </g>
      <g
         id="g1017"
         transform="matrix(0.32170815,-0.36608243,0.36608243,0.32170815,178.20166,212.27981)">
        <path
           d="m 293.00001,29 h 10 M 293,25 h 10 m -35.99999,4 h 10 M 267,25 h 10 m 36,2 a 5,5 0 0 1 -5,5 5,5 0 0 1 -5,-5 5,5 0 0 1 5,-5 5,5 0 0 1 5,5 z m -46.00003,0 a 5,5 0 0 1 -5,5 5,5 0 0 1 -5,-5 5,5 0 0 1 5,-5 5,5 0 0 1 5,5 z M 293,26.999998 a 8,7.9999981 0 0 1 -8,7.999998 8,7.9999981 0 0 1 -8,-7.999998 A 8,7.9999981 0 0 1 285,19 a 8,7.9999981 0 0 1 8,7.999998 z"
           style="fill:none;stroke:#000000;stroke-width:1.5;stroke-linecap:butt;stroke-linejoin:miter;stroke-miterlimit:4;stroke-dasharray:none;stroke-opacity:1"
           id="path1003"
           inkscape:connector-curvature="0" />
        <text
           id="text1007"
           y="32.064205"
           x="280.69534"
           style="font-style:normal;font-variant:normal;font-weight:normal;font-stretch:normal;font-size:15.22305679px;line-height:1.25;font-family:DCHBasisschrift;-inkscape-font-specification:DCHBasisschrift;letter-spacing:0.3805764px;word-spacing:0px;fill:#000000;fill-opacity:1;stroke:none;stroke-width:0.3805764"
           xml:space="preserve"><tspan
             style="stroke-width:0.3805764"
             y="32.064205"
             x="280.69534"
             id="tspan1005"
             sodipodi:role="line">C</tspan></text>
        <text
           id="text1011"
           y="29.477699"
           x="259.89432"
           style="font-style:normal;font-variant:normal;font-weight:normal;font-stretch:normal;font-size:7.44053936px;line-height:1.25;font-family:DCHBasisschrift;-inkscape-font-specification:DCHBasisschrift;letter-spacing:0.18601348px;word-spacing:0px;fill:#000000;fill-opacity:1;stroke:none;stroke-width:0.18601348"
           xml:space="preserve"><tspan
             style="stroke-width:0.18601348"
             y="29.477699"
             x="259.89432"
             id="tspan1009"
             sodipodi:role="line">O</tspan></text>
        <text
           xml:space="preserve"
           style="font-style:normal;font-variant:normal;font-weight:normal;font-stretch:normal;font-size:7.44053936px;line-height:1.25;font-family:DCHBasisschrift;-inkscape-font-specification:DCHBasisschrift;letter-spacing:0.18601348px;word-spacing:0px;fill:#000000;fill-opacity:1;stroke:none;stroke-width:0.18601348"
           x="305.89432"
           y="29.477699"
           id="text1015"><tspan
             sodipodi:role="line"
             id="tspan1013"
             x="305.89432"
             y="29.477699"
             style="stroke-width:0.18601348">O</tspan></text>
      </g>
      <g
         transform="matrix(0.23878743,0.17245122,-0.17245122,0.23878743,320.77925,93.560444)"
         id="g1033">
        <path
           inkscape:connector-curvature="0"
           id="path1019"
           style="fill:none;stroke:#000000;stroke-width:1.5;stroke-linecap:butt;stroke-linejoin:miter;stroke-miterlimit:4;stroke-dasharray:none;stroke-opacity:1"
           d="m 293.00001,29 h 10 M 293,25 h 10 m -35.99999,4 h 10 M 267,25 h 10 m 36,2 a 5,5 0 0 1 -5,5 5,5 0 0 1 -5,-5 5,5 0 0 1 5,-5 5,5 0 0 1 5,5 z m -46.00003,0 a 5,5 0 0 1 -5,5 5,5 0 0 1 -5,-5 5,5 0 0 1 5,-5 5,5 0 0 1 5,5 z M 293,26.999998 a 8,7.9999981 0 0 1 -8,7.999998 8,7.9999981 0 0 1 -8,-7.999998 A 8,7.9999981 0 0 1 285,19 a 8,7.9999981 0 0 1 8,7.999998 z" />
        <text
           xml:space="preserve"
           style="font-style:normal;font-variant:normal;font-weight:normal;font-stretch:normal;font-size:15.22305679px;line-height:1.25;font-family:DCHBasisschrift;-inkscape-font-specification:DCHBasisschrift;letter-spacing:0.3805764px;word-spacing:0px;fill:#000000;fill-opacity:1;stroke:none;stroke-width:0.3805764"
           x="280.69534"
           y="32.064205"
           id="text1023"><tspan
             sodipodi:role="line"
             id="tspan1021"
             x="280.69534"
             y="32.064205"
             style="stroke-width:0.3805764">C</tspan></text>
        <text
           xml:space="preserve"
           style="font-style:normal;font-variant:normal;font-weight:normal;font-stretch:normal;font-size:7.44053936px;line-height:1.25;font-family:DCHBasisschrift;-inkscape-font-specification:DCHBasisschrift;letter-spacing:0.18601348px;word-spacing:0px;fill:#000000;fill-opacity:1;stroke:none;stroke-width:0.18601348"
           x="259.89432"
           y="29.477699"
           id="text1027"><tspan
             sodipodi:role="line"
             id="tspan1025"
             x="259.89432"
             y="29.477699"
             style="stroke-width:0.18601348">O</tspan></text>
        <text
           id="text1031"
           y="29.477699"
           x="305.89432"
           style="font-style:normal;font-variant:normal;font-weight:normal;font-stretch:normal;font-size:7.44053936px;line-height:1.25;font-family:DCHBasisschrift;-inkscape-font-specification:DCHBasisschrift;letter-spacing:0.18601348px;word-spacing:0px;fill:#000000;fill-opacity:1;stroke:none;stroke-width:0.18601348"
           xml:space="preserve"><tspan
             style="stroke-width:0.18601348"
             y="29.477699"
             x="305.89432"
             id="tspan1029"
             sodipodi:role="line">O</tspan></text>
      </g>
      <g
         id="g1049"
         transform="matrix(0.16225689,-0.24582832,0.24582832,0.16225689,190.53857,230.97601)">
        <path
           d="m 293.00001,29 h 10 M 293,25 h 10 m -35.99999,4 h 10 M 267,25 h 10 m 36,2 a 5,5 0 0 1 -5,5 5,5 0 0 1 -5,-5 5,5 0 0 1 5,-5 5,5 0 0 1 5,5 z m -46.00003,0 a 5,5 0 0 1 -5,5 5,5 0 0 1 -5,-5 5,5 0 0 1 5,-5 5,5 0 0 1 5,5 z M 293,26.999998 a 8,7.9999981 0 0 1 -8,7.999998 8,7.9999981 0 0 1 -8,-7.999998 A 8,7.9999981 0 0 1 285,19 a 8,7.9999981 0 0 1 8,7.999998 z"
           style="fill:none;stroke:#000000;stroke-width:1.5;stroke-linecap:butt;stroke-linejoin:miter;stroke-miterlimit:4;stroke-dasharray:none;stroke-opacity:1"
           id="path1035"
           inkscape:connector-curvature="0" />
        <text
           id="text1039"
           y="32.064205"
           x="280.69534"
           style="font-style:normal;font-variant:normal;font-weight:normal;font-stretch:normal;font-size:15.22305679px;line-height:1.25;font-family:DCHBasisschrift;-inkscape-font-specification:DCHBasisschrift;letter-spacing:0.3805764px;word-spacing:0px;fill:#000000;fill-opacity:1;stroke:none;stroke-width:0.3805764"
           xml:space="preserve"><tspan
             style="stroke-width:0.3805764"
             y="32.064205"
             x="280.69534"
             id="tspan1037"
             sodipodi:role="line">C</tspan></text>
        <text
           id="text1043"
           y="29.477699"
           x="259.89432"
           style="font-style:normal;font-variant:normal;font-weight:normal;font-stretch:normal;font-size:7.44053936px;line-height:1.25;font-family:DCHBasisschrift;-inkscape-font-specification:DCHBasisschrift;letter-spacing:0.18601348px;word-spacing:0px;fill:#000000;fill-opacity:1;stroke:none;stroke-width:0.18601348"
           xml:space="preserve"><tspan
             style="stroke-width:0.18601348"
             y="29.477699"
             x="259.89432"
             id="tspan1041"
             sodipodi:role="line">O</tspan></text>
        <text
           xml:space="preserve"
           style="font-style:normal;font-variant:normal;font-weight:normal;font-stretch:normal;font-size:7.44053936px;line-height:1.25;font-family:DCHBasisschrift;-inkscape-font-specification:DCHBasisschrift;letter-spacing:0.18601348px;word-spacing:0px;fill:#000000;fill-opacity:1;stroke:none;stroke-width:0.18601348"
           x="305.89432"
           y="29.477699"
           id="text1047"><tspan
             sodipodi:role="line"
             id="tspan1045"
             x="305.89432"
             y="29.477699"
             style="stroke-width:0.18601348">O</tspan></text>
      </g>
      <g
         inkscape:transform-center-y="-0.26458336"
         transform="matrix(0.29194409,0.03908334,-0.03908334,0.29194409,214.187,106.05797)"
         id="g1065">
        <path
           inkscape:connector-curvature="0"
           id="path1051"
           style="fill:none;stroke:#000000;stroke-width:1.5;stroke-linecap:butt;stroke-linejoin:miter;stroke-miterlimit:4;stroke-dasharray:none;stroke-opacity:1"
           d="m 293.00001,29 h 10 M 293,25 h 10 m -35.99999,4 h 10 M 267,25 h 10 m 36,2 a 5,5 0 0 1 -5,5 5,5 0 0 1 -5,-5 5,5 0 0 1 5,-5 5,5 0 0 1 5,5 z m -46.00003,0 a 5,5 0 0 1 -5,5 5,5 0 0 1 -5,-5 5,5 0 0 1 5,-5 5,5 0 0 1 5,5 z M 293,26.999998 a 8,7.9999981 0 0 1 -8,7.999998 8,7.9999981 0 0 1 -8,-7.999998 A 8,7.9999981 0 0 1 285,19 a 8,7.9999981 0 0 1 8,7.999998 z" />
        <text
           xml:space="preserve"
           style="font-style:normal;font-variant:normal;font-weight:normal;font-stretch:normal;font-size:15.22305679px;line-height:1.25;font-family:DCHBasisschrift;-inkscape-font-specification:DCHBasisschrift;letter-spacing:0.3805764px;word-spacing:0px;fill:#000000;fill-opacity:1;stroke:none;stroke-width:0.3805764"
           x="280.69534"
           y="32.064205"
           id="text1055"><tspan
             sodipodi:role="line"
             id="tspan1053"
             x="280.69534"
             y="32.064205"
             style="stroke-width:0.3805764">C</tspan></text>
        <text
           xml:space="preserve"
           style="font-style:normal;font-variant:normal;font-weight:normal;font-stretch:normal;font-size:7.44053936px;line-height:1.25;font-family:DCHBasisschrift;-inkscape-font-specification:DCHBasisschrift;letter-spacing:0.18601348px;word-spacing:0px;fill:#000000;fill-opacity:1;stroke:none;stroke-width:0.18601348"
           x="259.89432"
           y="29.477699"
           id="text1059"><tspan
             sodipodi:role="line"
             id="tspan1057"
             x="259.89432"
             y="29.477699"
             style="stroke-width:0.18601348">O</tspan></text>
        <text
           id="text1063"
           y="29.477699"
           x="305.89432"
           style="font-style:normal;font-variant:normal;font-weight:normal;font-stretch:normal;font-size:7.44053936px;line-height:1.25;font-family:DCHBasisschrift;-inkscape-font-specification:DCHBasisschrift;letter-spacing:0.18601348px;word-spacing:0px;fill:#000000;fill-opacity:1;stroke:none;stroke-width:0.18601348"
           xml:space="preserve"><tspan
             style="stroke-width:0.18601348"
             y="29.477699"
             x="305.89432"
             id="tspan1061"
             sodipodi:role="line">O</tspan></text>
      </g>
      <g
         id="g1081"
         transform="matrix(0.29194409,0.03908334,-0.03908334,0.29194409,281.39117,152.62464)"
         inkscape:transform-center-y="-0.26458336">
        <path
           d="m 293.00001,29 h 10 M 293,25 h 10 m -35.99999,4 h 10 M 267,25 h 10 m 36,2 a 5,5 0 0 1 -5,5 5,5 0 0 1 -5,-5 5,5 0 0 1 5,-5 5,5 0 0 1 5,5 z m -46.00003,0 a 5,5 0 0 1 -5,5 5,5 0 0 1 -5,-5 5,5 0 0 1 5,-5 5,5 0 0 1 5,5 z M 293,26.999998 a 8,7.9999981 0 0 1 -8,7.999998 8,7.9999981 0 0 1 -8,-7.999998 A 8,7.9999981 0 0 1 285,19 a 8,7.9999981 0 0 1 8,7.999998 z"
           style="fill:none;stroke:#000000;stroke-width:1.5;stroke-linecap:butt;stroke-linejoin:miter;stroke-miterlimit:4;stroke-dasharray:none;stroke-opacity:1"
           id="path1067"
           inkscape:connector-curvature="0" />
        <text
           id="text1071"
           y="32.064205"
           x="280.69534"
           style="font-style:normal;font-variant:normal;font-weight:normal;font-stretch:normal;font-size:15.22305679px;line-height:1.25;font-family:DCHBasisschrift;-inkscape-font-specification:DCHBasisschrift;letter-spacing:0.3805764px;word-spacing:0px;fill:#000000;fill-opacity:1;stroke:none;stroke-width:0.3805764"
           xml:space="preserve"><tspan
             style="stroke-width:0.3805764"
             y="32.064205"
             x="280.69534"
             id="tspan1069"
             sodipodi:role="line">C</tspan></text>
        <text
           id="text1075"
           y="29.477699"
           x="259.89432"
           style="font-style:normal;font-variant:normal;font-weight:normal;font-stretch:normal;font-size:7.44053936px;line-height:1.25;font-family:DCHBasisschrift;-inkscape-font-specification:DCHBasisschrift;letter-spacing:0.18601348px;word-spacing:0px;fill:#000000;fill-opacity:1;stroke:none;stroke-width:0.18601348"
           xml:space="preserve"><tspan
             style="stroke-width:0.18601348"
             y="29.477699"
             x="259.89432"
             id="tspan1073"
             sodipodi:role="line">O</tspan></text>
        <text
           xml:space="preserve"
           style="font-style:normal;font-variant:normal;font-weight:normal;font-stretch:normal;font-size:7.44053936px;line-height:1.25;font-family:DCHBasisschrift;-inkscape-font-specification:DCHBasisschrift;letter-spacing:0.18601348px;word-spacing:0px;fill:#000000;fill-opacity:1;stroke:none;stroke-width:0.18601348"
           x="305.89432"
           y="29.477699"
           id="text1079"><tspan
             sodipodi:role="line"
             id="tspan1077"
             x="305.89432"
             y="29.477699"
             style="stroke-width:0.18601348">O</tspan></text>
      </g>
    </g>
  </g>
</svg>
