<?xml version="1.0" encoding="UTF-8" standalone="no"?>
<!-- Created with Inkscape (http://www.inkscape.org/) -->

<svg
   xmlns:dc="http://purl.org/dc/elements/1.1/"
   xmlns:cc="http://creativecommons.org/ns#"
   xmlns:rdf="http://www.w3.org/1999/02/22-rdf-syntax-ns#"
   xmlns:svg="http://www.w3.org/2000/svg"
   xmlns="http://www.w3.org/2000/svg"
   xmlns:sodipodi="http://sodipodi.sourceforge.net/DTD/sodipodi-0.dtd"
   xmlns:inkscape="http://www.inkscape.org/namespaces/inkscape"
   width="210mm"
   height="297mm"
   viewBox="0 0 210 297"
   version="1.1"
   id="svg8"
   inkscape:version="0.92.5 (2060ec1f9f, 2020-04-08)"
   sodipodi:docname="case-acryl.svg">
  <defs
     id="defs2" />
  <sodipodi:namedview
     id="base"
     pagecolor="#ffffff"
     bordercolor="#666666"
     borderopacity="1.0"
     inkscape:pageopacity="0.0"
     inkscape:pageshadow="2"
     inkscape:zoom="1.4142136"
     inkscape:cx="280.22004"
     inkscape:cy="752.42067"
     inkscape:document-units="mm"
     inkscape:current-layer="layer1"
     showgrid="true"
     inkscape:snap-bbox="true"
     inkscape:snap-bbox-midpoints="true"
     inkscape:window-width="1920"
     inkscape:window-height="1015"
     inkscape:window-x="0"
     inkscape:window-y="0"
     inkscape:window-maximized="1"
     showguides="true"
     inkscape:guide-bbox="true">
    <inkscape:grid
       type="xygrid"
       id="grid815"
       units="mm"
       spacingx="1"
       spacingy="1"
       visible="true" />
    <sodipodi:guide
       position="89.999998,125"
       orientation="1,0"
       id="guide1417"
       inkscape:locked="false" />
  </sodipodi:namedview>
  <metadata
     id="metadata5">
    <rdf:RDF>
      <cc:Work
         rdf:about="">
        <dc:format>image/svg+xml</dc:format>
        <dc:type
           rdf:resource="http://purl.org/dc/dcmitype/StillImage" />
        <dc:title />
      </cc:Work>
    </rdf:RDF>
  </metadata>
  <g
     inkscape:label="Layer 1"
     inkscape:groupmode="layer"
     id="layer1">
    <path
       style="fill:#ff0040;fill-opacity:0.4831461;fill-rule:evenodd;stroke:none;stroke-width:0.53450596;stroke-miterlimit:4;stroke-dasharray:none;stroke-opacity:1"
       d="m 288.97266,141.03906 c -7.92486,-0.0715 -15.88771,0.37936 -23.73504,1.36443 -7.84733,0.98506 -15.57915,2.50433 -23.04194,4.56962 -7.46279,2.06528 -14.65655,4.67658 -21.42778,7.8457 -6.77123,3.16913 -13.11992,6.89609 -18.89258,11.19269 -5.77265,4.29661 -10.96926,9.16286 -15.43631,14.61057 -4.46706,5.44771 -8.20457,11.47688 -11.05901,18.09932 -2.85445,6.62245 -4.82583,13.83818 -5.76065,21.65899 -0.93481,7.82082 -0.83306,16.24673 0.45877,25.28954 -18.89764,-7.08656 -36.27881,-9.73601 -52.04782,-8.911 -15.76902,0.82502 -29.925873,5.12449 -42.374866,11.9358 -12.448994,6.8113 -23.190129,16.13442 -32.127704,27.00673 -8.937576,10.8723 -16.071593,23.29379 -21.306353,36.30182 -5.23476,13.00803 -8.570262,26.6026 -9.910807,39.82107 -1.340546,13.21847 -0.686135,26.06084 2.058932,37.56446 2.745066,11.50363 7.580788,21.66851 14.602865,29.53202 7.022076,7.8635 16.230507,13.42562 27.720992,15.72371 -9.448707,14.17316 -15.295079,25.98416 -18.292061,35.9128 -2.996981,9.92865 -3.144574,17.97494 -1.195722,24.6187 1.948851,6.64376 5.994146,11.88498 11.382938,16.20348 5.388793,4.3185 12.121082,7.71428 19.443924,10.66714 7.322841,2.95287 15.236234,5.46284 22.987232,8.00971 7.750998,2.54687 15.3396,5.13065 22.01286,8.23115 6.67327,3.1005 10.78474,6.71772 14.87437,11.33148 4.08964,4.61376 4.37645,10.22306 4.37657,17.30971 v 56.69336 h 15.11719 v 7.55859 l 15.11887,9.9e-4 v 22.67578 h 41.57422 v 7.56055 h 64.25195 v -7.56055 h 45.35547 v -22.67578 h 11.33789 c 3.77953,0 3.7793,-3.7793 3.7793,-3.7793 v -3.78125 c 0,-3.77952 3.7793,-3.77929 3.7793,-3.77929 h 15.11914 c 0,0 3.77929,-2.3e-4 3.77929,3.77929 v 3.78125 c 0,0 -2.3e-4,3.7793 3.7793,3.7793 h 11.33789 v 30.23633 h 15.11914 v -7.56055 h 41.57422 v 7.56055 h 52.91406 v -7.56055 h 41.57422 v -22.67578 l 15.11847,-5.3e-4 v -7.55859 h 15.11718 v -56.69336 c 7e-5,-8.03153 -0.12174,-14.05465 2.49149,-18.63144 2.61324,-4.57679 5.06678,-7.70673 9.37782,-9.95084 4.31105,-2.2441 8.35829,-3.60237 13.4518,-4.63584 5.09351,-1.03347 10.34941,-1.74213 15.31004,-2.68701 4.96063,-0.94488 9.62597,-2.12598 13.53836,-4.10432 3.91239,-1.97834 7.07183,-4.75392 9.02064,-8.88777 1.9488,-4.13385 2.68698,-9.62597 1.75686,-17.03739 -0.93013,-7.41141 -3.52856,-16.74212 -8.25297,-28.55314 14.17323,2.3622 26.87006,0.59053 38.01668,-4.28154 11.14663,-4.87207 20.74304,-12.84455 28.71542,-22.88397 7.97239,-10.03942 14.32075,-22.14577 18.97128,-35.28559 4.65052,-13.13982 7.6032,-27.31311 8.78423,-41.4864 1.18103,-14.17329 0.59041,-28.34658 -1.84568,-41.4864 -2.43609,-13.13982 -6.71765,-25.24617 -12.9185,-35.28559 -6.20084,-10.03942 -14.32096,-18.0119 -24.43418,-22.88397 -10.11322,-4.87207 -22.21954,-6.64374 -36.39277,-4.28154 4.72441,-11.81102 5.61024,-23.32678 3.43259,-34.21508 -2.17766,-10.8883 -7.41879,-21.14914 -14.94831,-30.45035 -7.52952,-9.3012 -17.34742,-17.64276 -28.67861,-24.69249 -11.33119,-7.04973 -24.17567,-12.80763 -37.75834,-16.94152 -13.58267,-4.13388 -27.90352,-6.64375 -42.18747,-7.19742 -14.28394,-0.55367 -28.53098,0.84886 -41.96601,4.53979 -13.43503,3.69092 -26.05806,9.67024 -37.09398,18.27013 -11.03592,8.59989 -20.48474,19.82035 -27.57135,33.99358 -0.56071,-5.36683 -1.84604,-10.42883 -3.76866,-15.17927 -1.92261,-4.75044 -4.48253,-9.18932 -7.59242,-13.30993 -3.1099,-4.12061 -6.76977,-7.92294 -10.89231,-11.40026 -4.12254,-3.47733 -8.70774,-6.62966 -13.66829,-9.45026 -4.96056,-2.82061 -10.29646,-5.30949 -15.9204,-7.45992 -5.62393,-2.15043 -11.53591,-3.96242 -17.6486,-5.42924 -6.11269,-1.46682 -12.4261,-2.58847 -18.85292,-3.35823 -6.42682,-0.76976 -12.96704,-1.18763 -19.53335,-1.24688 z"
       transform="scale(0.26458333)"
       id="path985"
       inkscape:connector-curvature="0"
       sodipodi:nodetypes="sssssssscssssssscsssssssccccccccccccscsccscsccccccccccccccssssssscssssssscssssssscssssssss" />
    <text
       xml:space="preserve"
       style="font-style:normal;font-variant:normal;font-weight:normal;font-stretch:normal;font-size:10.58333302px;line-height:1.25;font-family:DCHBasisschrift;-inkscape-font-specification:DCHBasisschrift;letter-spacing:0.26458333px;word-spacing:0px;fill:#000000;fill-opacity:1;stroke:none;stroke-width:0.26458332;"
       x="261.9375"
       y="132.95834"
       id="text834"><tspan
         sodipodi:role="line"
         id="tspan832"
         x="261.9375"
         y="141.32976"
         style="stroke-width:0.26458332;letter-spacing:0.26458333px;" /></text>
  </g>
</svg>
