  0
SECTION
  2
HEADER
  9
$ACADVER
  1
AC1014
  9
$HANDSEED
  5
FFFF
  9
$MEASUREMENT
 70
     1
  0
ENDSEC
  0
SECTION
  2
TABLES
  0
TABLE
  2
VPORT
  5
8
330
0
100
AcDbSymbolTable
 70
     4
  0
VPORT
  5
2E
330
8
100
AcDbSymbolTableRecord
100
AcDbViewportTableRecord
  2
*ACTIVE
 70
     0
 10
0.0
 20
0.0
 11
1.0
 21
1.0
 12
210.0
 22
148.5
 13
0.0
 23
0.0
 14
10.0
 24
10.0
 15
10.0
 25
10.0
 16
0.0
 26
0.0
 36
1.0
 17
0.0
 27
0.0
 37
0.0
 40
341.0
 41
1.24
 42
50.0
 43
0.0
 44
0.0
 50
0.0
 51
0.0
 71
     0
 72
   100
 73
     1
 74
     3
 75
     0
 76
     0
 77
     0
 78
     0
  0
ENDTAB
  0
TABLE
  2
LTYPE
  5
5
330
0
100
AcDbSymbolTable
 70
     1
  0
LTYPE
  5
14
330
5
100
AcDbSymbolTableRecord
100
AcDbLinetypeTableRecord
  2
BYBLOCK
 70
     0
  3

 72
    65
 73
     0
 40
0.0
  0
LTYPE
  5
15
330
5
100
AcDbSymbolTableRecord
100
AcDbLinetypeTableRecord
  2
BYLAYER
 70
     0
  3

 72
    65
 73
     0
 40
0.0
  0
LTYPE
  5
16
330
5
100
AcDbSymbolTableRecord
100
AcDbLinetypeTableRecord
  2
CONTINUOUS
 70
     0
  3
Solid line
 72
    65
 73
     0
 40
0.0
  0
ENDTAB
  0
TABLE
  2
LAYER
  5
2
100
AcDbSymbolTable
 70
2
  0
LAYER
  5
50
100
AcDbSymbolTableRecord
100
AcDbLayerTableRecord
  2
0
 70
0
  6
CONTINUOUS
  0
LAYER
  5
51
100
AcDbSymbolTableRecord
100
AcDbLayerTableRecord
  2
Layer_1
 70
0
  6
CONTINUOUS
  0
ENDTAB
  0
TABLE
  2
STYLE
  5
3
330
0
100
AcDbSymbolTable
 70
     1
  0
STYLE
  5
11
330
3
100
AcDbSymbolTableRecord
100
AcDbTextStyleTableRecord
  2
STANDARD
 70
     0
 40
0.0
 41
1.0
 50
0.0
 71
     0
 42
2.5
  3
txt
  4

  0
ENDTAB
  0
TABLE
  2
VIEW
  5
6
330
0
100
AcDbSymbolTable
 70
     0
  0
ENDTAB
  0
TABLE
  2
UCS
  5
7
330
0
100
AcDbSymbolTable
 70
     0
  0
ENDTAB
  0
TABLE
  2
APPID
  5
9
330
0
100
AcDbSymbolTable
 70
     2
  0
APPID
  5
12
330
9
100
AcDbSymbolTableRecord
100
AcDbRegAppTableRecord
  2
ACAD
 70
     0
  0
ENDTAB
  0
TABLE
  2
DIMSTYLE
  5
A
330
0
100
AcDbSymbolTable
 70
     1
  0
DIMSTYLE
105
27
330
A
100
AcDbSymbolTableRecord
100
AcDbDimStyleTableRecord
  2
ISO-25
 70
     0
  3

  4

  5

  6

  7

 40
1.0
 41
2.5
 42
0.625
 43
3.75
 44
1.25
 45
0.0
 46
0.0
 47
0.0
 48
0.0
140
2.5
141
2.5
142
0.0
143
0.03937007874016
144
1.0
145
0.0
146
1.0
147
0.625
 71
     0
 72
     0
 73
     0
 74
     0
 75
     0
 76
     0
 77
     1
 78
     8
170
     0
171
     3
172
     1
173
     0
174
     0
175
     0
176
     0
177
     0
178
     0
270
     2
271
     2
272
     2
273
     2
274
     3
340
11
275
     0
280
     0
281
     0
282
     0
283
     0
284
     8
285
     0
286
     0
287
     3
288
     0
  0
ENDTAB
  0
TABLE
  2
BLOCK_RECORD
  5
1
330
0
100
AcDbSymbolTable
 70
     1
  0
BLOCK_RECORD
  5
1F
330
1
100
AcDbSymbolTableRecord
100
AcDbBlockTableRecord
  2
*MODEL_SPACE
  0
BLOCK_RECORD
  5
1B
330
1
100
AcDbSymbolTableRecord
100
AcDbBlockTableRecord
  2
*PAPER_SPACE
  0
ENDTAB
  0
ENDSEC
  0
SECTION
  2
BLOCKS
  0
BLOCK
  5
20
330
1F
100
AcDbEntity
  8
0
100
AcDbBlockBegin
  2
*MODEL_SPACE
 70
     0
 10
0.0
 20
0.0
 30
0.0
  3
*MODEL_SPACE
  1

  0
ENDBLK
  5
21
330
1F
100
AcDbEntity
  8
0
100
AcDbBlockEnd
  0
BLOCK
  5
1C
330
1B
100
AcDbEntity
 67
     1
  8
0
100
AcDbBlockBegin
  2
*PAPER_SPACE
  1

  0
ENDBLK
  5
1D
330
1B
100
AcDbEntity
 67
     1
  8
0
100
AcDbBlockEnd
  0
ENDSEC
  0
SECTION
  2
ENTITIES
  0
SPLINE
  5
100
100
AcDbEntity
  8
Layer_1
 62
7
100
AcDbSpline
 70
8
 71
3
 72
8
 73
4
 74
0
 40
0
 40
0
 40
0
 40
0
 40
1
 40
1
 40
1
 40
1
 10
76.457349
 20
259.683416
 30
0.0
 10
74.360563
 20
259.702334
 30
0.0
 10
72.253725
 20
259.583044
 30
0.0
 10
70.177453
 20
259.322410
 30
0.0
  0
SPLINE
  5
101
100
AcDbEntity
  8
Layer_1
 62
7
100
AcDbSpline
 70
8
 71
3
 72
8
 73
4
 74
0
 40
0
 40
0
 40
0
 40
0
 40
1
 40
1
 40
1
 40
1
 10
70.177453
 20
259.322410
 30
0.0
 10
68.101180
 20
259.061780
 30
0.0
 10
66.055469
 20
258.659806
 30
0.0
 10
64.080940
 20
258.113365
 30
0.0
  0
SPLINE
  5
102
100
AcDbEntity
  8
Layer_1
 62
7
100
AcDbSpline
 70
8
 71
3
 72
8
 73
4
 74
0
 40
0
 40
0
 40
0
 40
0
 40
1
 40
1
 40
1
 40
1
 10
64.080940
 20
258.113365
 30
0.0
 10
62.106410
 20
257.566926
 30
0.0
 10
60.203061
 20
256.876020
 30
0.0
 10
58.411506
 20
256.037524
 30
0.0
  0
SPLINE
  5
103
100
AcDbEntity
  8
Layer_1
 62
7
100
AcDbSpline
 70
8
 71
3
 72
8
 73
4
 74
0
 40
0
 40
0
 40
0
 40
0
 40
1
 40
1
 40
1
 40
1
 10
58.411506
 20
256.037524
 30
0.0
 10
56.619952
 20
255.199025
 30
0.0
 10
54.940194
 20
254.212933
 30
0.0
 10
53.412844
 20
253.076125
 30
0.0
  0
SPLINE
  5
104
100
AcDbEntity
  8
Layer_1
 62
7
100
AcDbSpline
 70
8
 71
3
 72
8
 73
4
 74
0
 40
0
 40
0
 40
0
 40
0
 40
1
 40
1
 40
1
 40
1
 10
53.412844
 20
253.076125
 30
0.0
 10
51.885497
 20
251.939313
 30
0.0
 10
50.510561
 20
250.651785
 30
0.0
 10
49.328654
 20
249.210411
 30
0.0
  0
SPLINE
  5
105
100
AcDbEntity
  8
Layer_1
 62
7
100
AcDbSpline
 70
8
 71
3
 72
8
 73
4
 74
0
 40
0
 40
0
 40
0
 40
0
 40
1
 40
1
 40
1
 40
1
 10
49.328654
 20
249.210411
 30
0.0
 10
48.146744
 20
247.769038
 30
0.0
 10
47.157862
 20
246.173820
 30
0.0
 10
46.402624
 20
244.421633
 30
0.0
  0
SPLINE
  5
106
100
AcDbEntity
  8
Layer_1
 62
7
100
AcDbSpline
 70
8
 71
3
 72
8
 73
4
 74
0
 40
0
 40
0
 40
0
 40
0
 40
1
 40
1
 40
1
 40
1
 10
46.402624
 20
244.421633
 30
0.0
 10
45.647385
 20
242.669443
 30
0.0
 10
45.125790
 20
240.760281
 30
0.0
 10
44.878452
 20
238.691025
 30
0.0
  0
SPLINE
  5
107
100
AcDbEntity
  8
Layer_1
 62
7
100
AcDbSpline
 70
8
 71
3
 72
8
 73
4
 74
0
 40
0
 40
0
 40
0
 40
0
 40
1
 40
1
 40
1
 40
1
 10
44.878452
 20
238.691025
 30
0.0
 10
44.631117
 20
236.621767
 30
0.0
 10
44.658039
 20
234.392411
 30
0.0
 10
44.999835
 20
231.999834
 30
0.0
  0
SPLINE
  5
108
100
AcDbEntity
  8
Layer_1
 62
7
100
AcDbSpline
 70
8
 71
3
 72
8
 73
4
 74
0
 40
0
 40
0
 40
0
 40
0
 40
1
 40
1
 40
1
 40
1
 10
44.999835
 20
231.999834
 30
0.0
 10
39.999835
 20
233.874820
 30
0.0
 10
35.401067
 20
234.575820
 30
0.0
 10
31.228850
 20
234.357537
 30
0.0
  0
SPLINE
  5
109
100
AcDbEntity
  8
Layer_1
 62
7
100
AcDbSpline
 70
8
 71
3
 72
8
 73
4
 74
0
 40
0
 40
0
 40
0
 40
0
 40
1
 40
1
 40
1
 40
1
 10
31.228850
 20
234.357537
 30
0.0
 10
27.056630
 20
234.139250
 30
0.0
 10
23.310963
 20
233.001682
 30
0.0
 10
20.017167
 20
231.199523
 30
0.0
  0
SPLINE
  5
10a
100
AcDbEntity
  8
Layer_1
 62
7
100
AcDbSpline
 70
8
 71
3
 72
8
 73
4
 74
0
 40
0
 40
0
 40
0
 40
0
 40
1
 40
1
 40
1
 40
1
 10
20.017167
 20
231.199523
 30
0.0
 10
16.723370
 20
229.397366
 30
0.0
 10
13.881445
 20
226.930624
 30
0.0
 10
11.516712
 20
224.053992
 30
0.0
  0
SPLINE
  5
10b
100
AcDbEntity
  8
Layer_1
 62
7
100
AcDbSpline
 70
8
 71
3
 72
8
 73
4
 74
0
 40
0
 40
0
 40
0
 40
0
 40
1
 40
1
 40
1
 40
1
 10
11.516712
 20
224.053992
 30
0.0
 10
9.151978
 20
221.177363
 30
0.0
 10
7.264436
 20
217.890844
 30
0.0
 10
5.879406
 20
214.449136
 30
0.0
  0
SPLINE
  5
10c
100
AcDbEntity
  8
Layer_1
 62
7
100
AcDbSpline
 70
8
 71
3
 72
8
 73
4
 74
0
 40
0
 40
0
 40
0
 40
0
 40
1
 40
1
 40
1
 40
1
 10
5.879406
 20
214.449136
 30
0.0
 10
4.494376
 20
211.007428
 30
0.0
 10
3.611857
 20
207.410531
 30
0.0
 10
3.257172
 20
203.913145
 30
0.0
  0
SPLINE
  5
10d
100
AcDbEntity
  8
Layer_1
 62
7
100
AcDbSpline
 70
8
 71
3
 72
8
 73
4
 74
0
 40
0
 40
0
 40
0
 40
0
 40
1
 40
1
 40
1
 40
1
 10
3.257172
 20
203.913145
 30
0.0
 10
2.902485
 20
200.415758
 30
0.0
 10
3.075632
 20
197.017881
 30
0.0
 10
3.801931
 20
193.974215
 30
0.0
  0
SPLINE
  5
10e
100
AcDbEntity
  8
Layer_1
 62
7
100
AcDbSpline
 70
8
 71
3
 72
8
 73
4
 74
0
 40
0
 40
0
 40
0
 40
0
 40
1
 40
1
 40
1
 40
1
 10
3.801931
 20
193.974215
 30
0.0
 10
4.528229
 20
190.930546
 30
0.0
 10
5.807681
 20
188.241088
 30
0.0
 10
7.665605
 20
186.160534
 30
0.0
  0
SPLINE
  5
10f
100
AcDbEntity
  8
Layer_1
 62
7
100
AcDbSpline
 70
8
 71
3
 72
8
 73
4
 74
0
 40
0
 40
0
 40
0
 40
0
 40
1
 40
1
 40
1
 40
1
 10
7.665605
 20
186.160534
 30
0.0
 10
9.523530
 20
184.079983
 30
0.0
 10
11.959927
 20
182.608339
 30
0.0
 10
15.000118
 20
182.000303
 30
0.0
  0
SPLINE
  5
110
100
AcDbEntity
  8
Layer_1
 62
7
100
AcDbSpline
 70
8
 71
3
 72
8
 73
4
 74
0
 40
0
 40
0
 40
0
 40
0
 40
1
 40
1
 40
1
 40
1
 10
15.000118
 20
182.000303
 30
0.0
 10
12.500147
 20
178.250321
 30
0.0
 10
10.953295
 20
175.125327
 30
0.0
 10
10.160343
 20
172.498375
 30
0.0
  0
SPLINE
  5
111
100
AcDbEntity
  8
Layer_1
 62
7
100
AcDbSpline
 70
8
 71
3
 72
8
 73
4
 74
0
 40
0
 40
0
 40
0
 40
0
 40
1
 40
1
 40
1
 40
1
 10
10.160343
 20
172.498375
 30
0.0
 10
9.367392
 20
169.871419
 30
0.0
 10
9.328341
 20
167.742505
 30
0.0
 10
9.843975
 20
165.984677
 30
0.0
  0
SPLINE
  5
112
100
AcDbEntity
  8
Layer_1
 62
7
100
AcDbSpline
 70
8
 71
3
 72
8
 73
4
 74
0
 40
0
 40
0
 40
0
 40
0
 40
1
 40
1
 40
1
 40
1
 10
9.843975
 20
165.984677
 30
0.0
 10
10.359609
 20
164.226849
 30
0.0
 10
11.429926
 20
162.840109
 30
0.0
 10
12.855711
 20
161.697506
 30
0.0
  0
SPLINE
  5
113
100
AcDbEntity
  8
Layer_1
 62
7
100
AcDbSpline
 70
8
 71
3
 72
8
 73
4
 74
0
 40
0
 40
0
 40
0
 40
0
 40
1
 40
1
 40
1
 40
1
 10
12.855711
 20
161.697506
 30
0.0
 10
14.281496
 20
160.554903
 30
0.0
 10
16.062747
 20
159.656436
 30
0.0
 10
18.000249
 20
158.875159
 30
0.0
  0
SPLINE
  5
114
100
AcDbEntity
  8
Layer_1
 62
7
100
AcDbSpline
 70
8
 71
3
 72
8
 73
4
 74
0
 40
0
 40
0
 40
0
 40
0
 40
1
 40
1
 40
1
 40
1
 10
18.000249
 20
158.875159
 30
0.0
 10
19.937751
 20
158.093879
 30
0.0
 10
22.031503
 20
157.429783
 30
0.0
 10
24.082287
 20
156.755923
 30
0.0
  0
SPLINE
  5
115
100
AcDbEntity
  8
Layer_1
 62
7
100
AcDbSpline
 70
8
 71
3
 72
8
 73
4
 74
0
 40
0
 40
0
 40
0
 40
0
 40
1
 40
1
 40
1
 40
1
 10
24.082287
 20
156.755923
 30
0.0
 10
26.133072
 20
156.082064
 30
0.0
 10
28.140890
 20
155.398439
 30
0.0
 10
29.906523
 20
154.578098
 30
0.0
  0
SPLINE
  5
116
100
AcDbEntity
  8
Layer_1
 62
7
100
AcDbSpline
 70
8
 71
3
 72
8
 73
4
 74
0
 40
0
 40
0
 40
0
 40
0
 40
1
 40
1
 40
1
 40
1
 10
29.906523
 20
154.578098
 30
0.0
 10
31.672159
 20
153.757757
 30
0.0
 10
32.759986
 20
152.800701
 30
0.0
 10
33.842034
 20
151.579977
 30
0.0
  0
SPLINE
  5
117
100
AcDbEntity
  8
Layer_1
 62
7
100
AcDbSpline
 70
8
 71
3
 72
8
 73
4
 74
0
 40
0
 40
0
 40
0
 40
0
 40
1
 40
1
 40
1
 40
1
 10
33.842034
 20
151.579977
 30
0.0
 10
34.924084
 20
150.359253
 30
0.0
 10
34.999969
 20
148.875126
 30
0.0
 10
35.000001
 20
147.000117
 30
0.0
  0
LINE
  5
118
100
AcDbEntity
  8
Layer_1
 62
7
100
AcDbLine
 10
35.000001
 20
147.000117
 30
0.0
 11
35.000001
 21
131.999999
 31
0.0
  0
LINE
  5
119
100
AcDbEntity
  8
Layer_1
 62
7
100
AcDbLine
 10
35.000001
 20
131.999999
 30
0.0
 11
38.999757
 21
131.999999
 31
0.0
  0
LINE
  5
11a
100
AcDbEntity
  8
Layer_1
 62
7
100
AcDbLine
 10
38.999757
 20
131.999999
 30
0.0
 11
38.999757
 21
130.000122
 31
0.0
  0
LINE
  5
11b
100
AcDbEntity
  8
Layer_1
 62
7
100
AcDbLine
 10
38.999757
 20
130.000122
 30
0.0
 11
42.999958
 21
129.999860
 31
0.0
  0
LINE
  5
11c
100
AcDbEntity
  8
Layer_1
 62
7
100
AcDbLine
 10
42.999958
 20
129.999860
 30
0.0
 11
42.999958
 21
124.000226
 31
0.0
  0
LINE
  5
11d
100
AcDbEntity
  8
Layer_1
 62
7
100
AcDbLine
 10
42.999958
 20
124.000226
 30
0.0
 11
53.999804
 21
124.000226
 31
0.0
  0
LINE
  5
11e
100
AcDbEntity
  8
Layer_1
 62
7
100
AcDbLine
 10
53.999804
 20
124.000226
 30
0.0
 11
53.999804
 21
121.999831
 31
0.0
  0
LINE
  5
11f
100
AcDbEntity
  8
Layer_1
 62
7
100
AcDbLine
 10
53.999804
 20
121.999831
 30
0.0
 11
70.999799
 21
121.999831
 31
0.0
  0
LINE
  5
120
100
AcDbEntity
  8
Layer_1
 62
7
100
AcDbLine
 10
70.999799
 20
121.999831
 30
0.0
 11
70.999799
 21
124.000226
 31
0.0
  0
LINE
  5
121
100
AcDbEntity
  8
Layer_1
 62
7
100
AcDbLine
 10
70.999799
 20
124.000226
 30
0.0
 11
83.000100
 21
124.000226
 31
0.0
  0
LINE
  5
122
100
AcDbEntity
  8
Layer_1
 62
7
100
AcDbLine
 10
83.000100
 20
124.000226
 30
0.0
 11
83.000100
 21
129.999860
 31
0.0
  0
LINE
  5
123
100
AcDbEntity
  8
Layer_1
 62
7
100
AcDbLine
 10
83.000100
 20
129.999860
 30
0.0
 11
85.999917
 21
129.999860
 31
0.0
  0
SPLINE
  5
124
100
AcDbEntity
  8
Layer_1
 62
7
100
AcDbSpline
 70
8
 71
3
 72
8
 73
4
 74
0
 40
0
 40
0
 40
0
 40
0
 40
1
 40
1
 40
1
 40
1
 10
85.999917
 20
129.999860
 30
0.0
 10
86.999918
 20
129.999860
 30
0.0
 10
86.999857
 20
130.999800
 30
0.0
 10
86.999857
 20
130.999800
 30
0.0
  0
LINE
  5
125
100
AcDbEntity
  8
Layer_1
 62
7
100
AcDbLine
 10
86.999857
 20
130.999800
 30
0.0
 11
86.999857
 21
132.000255
 31
0.0
  0
SPLINE
  5
126
100
AcDbEntity
  8
Layer_1
 62
7
100
AcDbSpline
 70
8
 71
3
 72
8
 73
4
 74
0
 40
0
 40
0
 40
0
 40
0
 40
1
 40
1
 40
1
 40
1
 10
86.999857
 20
132.000255
 30
0.0
 10
86.999857
 20
133.000253
 30
0.0
 10
87.999796
 20
133.000192
 30
0.0
 10
87.999796
 20
133.000192
 30
0.0
  0
LINE
  5
127
100
AcDbEntity
  8
Layer_1
 62
7
100
AcDbLine
 10
87.999796
 20
133.000192
 30
0.0
 11
92.000069
 21
133.000192
 31
0.0
  0
SPLINE
  5
128
100
AcDbEntity
  8
Layer_1
 62
7
100
AcDbSpline
 70
8
 71
3
 72
8
 73
4
 74
0
 40
0
 40
0
 40
0
 40
0
 40
1
 40
1
 40
1
 40
1
 10
92.000069
 20
133.000192
 30
0.0
 10
92.000069
 20
133.000192
 30
0.0
 10
93.000006
 20
133.000253
 30
0.0
 10
93.000006
 20
132.000255
 30
0.0
  0
LINE
  5
129
100
AcDbEntity
  8
Layer_1
 62
7
100
AcDbLine
 10
93.000006
 20
132.000255
 30
0.0
 11
93.000006
 21
130.999800
 31
0.0
  0
SPLINE
  5
12a
100
AcDbEntity
  8
Layer_1
 62
7
100
AcDbSpline
 70
8
 71
3
 72
8
 73
4
 74
0
 40
0
 40
0
 40
0
 40
0
 40
1
 40
1
 40
1
 40
1
 10
93.000006
 20
130.999800
 30
0.0
 10
93.000006
 20
130.999800
 30
0.0
 10
92.999945
 20
129.999860
 30
0.0
 10
93.999946
 20
129.999860
 30
0.0
  0
LINE
  5
12b
100
AcDbEntity
  8
Layer_1
 62
7
100
AcDbLine
 10
93.999946
 20
129.999860
 30
0.0
 11
96.999762
 21
129.999860
 31
0.0
  0
LINE
  5
12c
100
AcDbEntity
  8
Layer_1
 62
7
100
AcDbLine
 10
96.999762
 20
129.999860
 30
0.0
 11
96.999762
 21
121.999831
 31
0.0
  0
LINE
  5
12d
100
AcDbEntity
  8
Layer_1
 62
7
100
AcDbLine
 10
96.999762
 20
121.999831
 30
0.0
 11
101.000035
 21
121.999831
 31
0.0
  0
LINE
  5
12e
100
AcDbEntity
  8
Layer_1
 62
7
100
AcDbLine
 10
101.000035
 20
121.999831
 30
0.0
 11
101.000035
 21
124.000226
 31
0.0
  0
LINE
  5
12f
100
AcDbEntity
  8
Layer_1
 62
7
100
AcDbLine
 10
101.000035
 20
124.000226
 30
0.0
 11
111.999880
 21
124.000226
 31
0.0
  0
LINE
  5
130
100
AcDbEntity
  8
Layer_1
 62
7
100
AcDbLine
 10
111.999880
 20
124.000226
 30
0.0
 11
111.999880
 21
121.999831
 31
0.0
  0
LINE
  5
131
100
AcDbEntity
  8
Layer_1
 62
7
100
AcDbLine
 10
111.999880
 20
121.999831
 30
0.0
 11
126.000059
 21
121.999831
 31
0.0
  0
LINE
  5
132
100
AcDbEntity
  8
Layer_1
 62
7
100
AcDbLine
 10
126.000059
 20
121.999831
 30
0.0
 11
126.000059
 21
124.000226
 31
0.0
  0
LINE
  5
133
100
AcDbEntity
  8
Layer_1
 62
7
100
AcDbLine
 10
126.000059
 20
124.000226
 30
0.0
 11
136.999904
 21
124.000226
 31
0.0
  0
LINE
  5
134
100
AcDbEntity
  8
Layer_1
 62
7
100
AcDbLine
 10
136.999904
 20
124.000226
 30
0.0
 11
136.999904
 21
129.999860
 31
0.0
  0
LINE
  5
135
100
AcDbEntity
  8
Layer_1
 62
7
100
AcDbLine
 10
136.999904
 20
129.999860
 30
0.0
 11
140.999999
 21
130.000000
 31
0.0
  0
LINE
  5
136
100
AcDbEntity
  8
Layer_1
 62
7
100
AcDbLine
 10
140.999999
 20
130.000000
 30
0.0
 11
140.999999
 21
131.999877
 31
0.0
  0
LINE
  5
137
100
AcDbEntity
  8
Layer_1
 62
7
100
AcDbLine
 10
140.999999
 20
131.999877
 30
0.0
 11
144.999753
 21
131.999877
 31
0.0
  0
LINE
  5
138
100
AcDbEntity
  8
Layer_1
 62
7
100
AcDbLine
 10
144.999753
 20
131.999877
 30
0.0
 11
144.999753
 21
146.999995
 31
0.0
  0
SPLINE
  5
139
100
AcDbEntity
  8
Layer_1
 62
7
100
AcDbSpline
 70
8
 71
3
 72
8
 73
4
 74
0
 40
0
 40
0
 40
0
 40
0
 40
1
 40
1
 40
1
 40
1
 10
144.999753
 20
146.999995
 30
0.0
 10
144.999772
 20
149.125004
 30
0.0
 10
144.967543
 20
150.718621
 30
0.0
 10
145.658960
 20
151.929563
 30
0.0
  0
SPLINE
  5
13a
100
AcDbEntity
  8
Layer_1
 62
7
100
AcDbSpline
 70
8
 71
3
 72
8
 73
4
 74
0
 40
0
 40
0
 40
0
 40
0
 40
1
 40
1
 40
1
 40
1
 10
145.658960
 20
151.929563
 30
0.0
 10
146.350380
 20
153.140506
 30
0.0
 10
146.999545
 20
153.968636
 30
0.0
 10
148.140175
 20
154.562390
 30
0.0
  0
SPLINE
  5
13b
100
AcDbEntity
  8
Layer_1
 62
7
100
AcDbSpline
 70
8
 71
3
 72
8
 73
4
 74
0
 40
0
 40
0
 40
0
 40
0
 40
1
 40
1
 40
1
 40
1
 10
148.140175
 20
154.562390
 30
0.0
 10
149.280807
 20
155.156141
 30
0.0
 10
150.351639
 20
155.515517
 30
0.0
 10
151.699297
 20
155.788956
 30
0.0
  0
SPLINE
  5
13c
100
AcDbEntity
  8
Layer_1
 62
7
100
AcDbSpline
 70
8
 71
3
 72
8
 73
4
 74
0
 40
0
 40
0
 40
0
 40
0
 40
1
 40
1
 40
1
 40
1
 10
151.699297
 20
155.788956
 30
0.0
 10
153.046955
 20
156.062395
 30
0.0
 10
154.437578
 20
156.249894
 30
0.0
 10
155.750078
 20
156.499894
 30
0.0
  0
SPLINE
  5
13d
100
AcDbEntity
  8
Layer_1
 62
7
100
AcDbSpline
 70
8
 71
3
 72
8
 73
4
 74
0
 40
0
 40
0
 40
0
 40
0
 40
1
 40
1
 40
1
 40
1
 10
155.750078
 20
156.499894
 30
0.0
 10
157.062578
 20
156.749893
 30
0.0
 10
158.296949
 20
157.062393
 30
0.0
 10
159.332102
 20
157.585828
 30
0.0
  0
SPLINE
  5
13e
100
AcDbEntity
  8
Layer_1
 62
7
100
AcDbSpline
 70
8
 71
3
 72
8
 73
4
 74
0
 40
0
 40
0
 40
0
 40
0
 40
1
 40
1
 40
1
 40
1
 10
159.332102
 20
157.585828
 30
0.0
 10
160.367256
 20
158.109264
 30
0.0
 10
161.203191
 20
158.843636
 30
0.0
 10
161.718813
 20
159.937384
 30
0.0
  0
SPLINE
  5
13f
100
AcDbEntity
  8
Layer_1
 62
7
100
AcDbSpline
 70
8
 71
3
 72
8
 73
4
 74
0
 40
0
 40
0
 40
0
 40
0
 40
1
 40
1
 40
1
 40
1
 10
161.718813
 20
159.937384
 30
0.0
 10
162.234433
 20
161.031132
 30
0.0
 10
162.429744
 20
162.484255
 30
0.0
 10
162.183649
 20
164.445194
 30
0.0
  0
SPLINE
  5
140
100
AcDbEntity
  8
Layer_1
 62
7
100
AcDbSpline
 70
8
 71
3
 72
8
 73
4
 74
0
 40
0
 40
0
 40
0
 40
0
 40
1
 40
1
 40
1
 40
1
 10
162.183649
 20
164.445194
 30
0.0
 10
161.937552
 20
166.406129
 30
0.0
 10
161.250051
 20
168.874880
 30
0.0
 10
160.000051
 20
171.999879
 30
0.0
  0
SPLINE
  5
141
100
AcDbEntity
  8
Layer_1
 62
7
100
AcDbSpline
 70
8
 71
3
 72
8
 73
4
 74
0
 40
0
 40
0
 40
0
 40
0
 40
1
 40
1
 40
1
 40
1
 10
160.000051
 20
171.999879
 30
0.0
 10
163.750051
 20
171.374880
 30
0.0
 10
167.109421
 20
171.843634
 30
0.0
 10
170.058631
 20
173.132703
 30
0.0
  0
SPLINE
  5
142
100
AcDbEntity
  8
Layer_1
 62
7
100
AcDbSpline
 70
8
 71
3
 72
8
 73
4
 74
0
 40
0
 40
0
 40
0
 40
0
 40
1
 40
1
 40
1
 40
1
 10
170.058631
 20
173.132703
 30
0.0
 10
173.007843
 20
174.421771
 30
0.0
 10
175.546893
 20
176.531156
 30
0.0
 10
177.656252
 20
179.187420
 30
0.0
  0
SPLINE
  5
143
100
AcDbEntity
  8
Layer_1
 62
7
100
AcDbSpline
 70
8
 71
3
 72
8
 73
4
 74
0
 40
0
 40
0
 40
0
 40
0
 40
1
 40
1
 40
1
 40
1
 10
177.656252
 20
179.187420
 30
0.0
 10
179.765614
 20
181.843683
 30
0.0
 10
181.445284
 20
185.046821
 30
0.0
 10
182.675737
 20
188.523399
 30
0.0
  0
SPLINE
  5
144
100
AcDbEntity
  8
Layer_1
 62
7
100
AcDbSpline
 70
8
 71
3
 72
8
 73
4
 74
0
 40
0
 40
0
 40
0
 40
0
 40
1
 40
1
 40
1
 40
1
 10
182.675737
 20
188.523399
 30
0.0
 10
183.906187
 20
191.999976
 30
0.0
 10
184.687417
 20
195.749992
 30
0.0
 10
184.999898
 20
199.500008
 30
0.0
  0
SPLINE
  5
145
100
AcDbEntity
  8
Layer_1
 62
7
100
AcDbSpline
 70
8
 71
3
 72
8
 73
4
 74
0
 40
0
 40
0
 40
0
 40
0
 40
1
 40
1
 40
1
 40
1
 10
184.999898
 20
199.500008
 30
0.0
 10
185.312378
 20
203.250025
 30
0.0
 10
185.156110
 20
207.000041
 30
0.0
 10
184.511561
 20
210.476618
 30
0.0
  0
SPLINE
  5
146
100
AcDbEntity
  8
Layer_1
 62
7
100
AcDbSpline
 70
8
 71
3
 72
8
 73
4
 74
0
 40
0
 40
0
 40
0
 40
0
 40
1
 40
1
 40
1
 40
1
 10
184.511561
 20
210.476618
 30
0.0
 10
183.867013
 20
213.953196
 30
0.0
 10
182.734183
 20
217.156334
 30
0.0
 10
181.093542
 20
219.812597
 30
0.0
  0
SPLINE
  5
147
100
AcDbEntity
  8
Layer_1
 62
7
100
AcDbSpline
 70
8
 71
3
 72
8
 73
4
 74
0
 40
0
 40
0
 40
0
 40
0
 40
1
 40
1
 40
1
 40
1
 10
181.093542
 20
219.812597
 30
0.0
 10
179.452903
 20
222.468860
 30
0.0
 10
177.304454
 20
224.578246
 30
0.0
 10
174.628665
 20
225.867314
 30
0.0
  0
SPLINE
  5
148
100
AcDbEntity
  8
Layer_1
 62
7
100
AcDbSpline
 70
8
 71
3
 72
8
 73
4
 74
0
 40
0
 40
0
 40
0
 40
0
 40
1
 40
1
 40
1
 40
1
 10
174.628665
 20
225.867314
 30
0.0
 10
171.952876
 20
227.156383
 30
0.0
 10
168.749745
 20
227.625137
 30
0.0
 10
164.999745
 20
227.000138
 30
0.0
  0
SPLINE
  5
149
100
AcDbEntity
  8
Layer_1
 62
7
100
AcDbSpline
 70
8
 71
3
 72
8
 73
4
 74
0
 40
0
 40
0
 40
0
 40
0
 40
1
 40
1
 40
1
 40
1
 10
164.999745
 20
227.000138
 30
0.0
 10
166.249745
 20
230.125137
 30
0.0
 10
166.484121
 20
233.172015
 30
0.0
 10
165.907951
 20
236.052878
 30
0.0
  0
SPLINE
  5
14a
100
AcDbEntity
  8
Layer_1
 62
7
100
AcDbSpline
 70
8
 71
3
 72
8
 73
4
 74
0
 40
0
 40
0
 40
0
 40
0
 40
1
 40
1
 40
1
 40
1
 10
165.907951
 20
236.052878
 30
0.0
 10
165.331778
 20
238.933741
 30
0.0
 10
163.945063
 20
241.648588
 30
0.0
 10
161.952877
 20
244.109533
 30
0.0
  0
SPLINE
  5
14b
100
AcDbEntity
  8
Layer_1
 62
7
100
AcDbSpline
 70
8
 71
3
 72
8
 73
4
 74
0
 40
0
 40
0
 40
0
 40
0
 40
1
 40
1
 40
1
 40
1
 10
161.952877
 20
244.109533
 30
0.0
 10
159.960692
 20
246.570476
 30
0.0
 10
157.363039
 20
248.777513
 30
0.0
 10
154.364995
 20
250.642754
 30
0.0
  0
SPLINE
  5
14c
100
AcDbEntity
  8
Layer_1
 62
7
100
AcDbSpline
 70
8
 71
3
 72
8
 73
4
 74
0
 40
0
 40
0
 40
0
 40
0
 40
1
 40
1
 40
1
 40
1
 10
154.364995
 20
250.642754
 30
0.0
 10
151.366951
 20
252.507995
 30
0.0
 10
147.968516
 20
254.031440
 30
0.0
 10
144.374768
 20
255.125198
 30
0.0
  0
SPLINE
  5
14d
100
AcDbEntity
  8
Layer_1
 62
7
100
AcDbSpline
 70
8
 71
3
 72
8
 73
4
 74
0
 40
0
 40
0
 40
0
 40
0
 40
1
 40
1
 40
1
 40
1
 10
144.374768
 20
255.125198
 30
0.0
 10
140.781020
 20
256.218954
 30
0.0
 10
136.991961
 20
256.883024
 30
0.0
 10
133.212666
 20
257.029515
 30
0.0
  0
SPLINE
  5
14e
100
AcDbEntity
  8
Layer_1
 62
7
100
AcDbSpline
 70
8
 71
3
 72
8
 73
4
 74
0
 40
0
 40
0
 40
0
 40
0
 40
1
 40
1
 40
1
 40
1
 10
133.212666
 20
257.029515
 30
0.0
 10
129.433374
 20
257.176007
 30
0.0
 10
125.663845
 20
256.804921
 30
0.0
 10
122.109160
 20
255.828363
 30
0.0
  0
SPLINE
  5
14f
100
AcDbEntity
  8
Layer_1
 62
7
100
AcDbSpline
 70
8
 71
3
 72
8
 73
4
 74
0
 40
0
 40
0
 40
0
 40
0
 40
1
 40
1
 40
1
 40
1
 10
122.109160
 20
255.828363
 30
0.0
 10
118.554475
 20
254.851807
 30
0.0
 10
115.214631
 20
253.269778
 30
0.0
 10
112.294711
 20
250.994391
 30
0.0
  0
SPLINE
  5
150
100
AcDbEntity
  8
Layer_1
 62
7
100
AcDbSpline
 70
8
 71
3
 72
8
 73
4
 74
0
 40
0
 40
0
 40
0
 40
0
 40
1
 40
1
 40
1
 40
1
 10
112.294711
 20
250.994391
 30
0.0
 10
109.374790
 20
248.719003
 30
0.0
 10
106.874790
 20
245.750257
 30
0.0
 10
104.999791
 20
242.000256
 30
0.0
  0
SPLINE
  5
151
100
AcDbEntity
  8
Layer_1
 62
7
100
AcDbSpline
 70
8
 71
3
 72
8
 73
4
 74
0
 40
0
 40
0
 40
0
 40
0
 40
1
 40
1
 40
1
 40
1
 10
104.999791
 20
242.000256
 30
0.0
 10
104.851437
 20
243.420230
 30
0.0
 10
104.511360
 20
244.759551
 30
0.0
 10
104.002667
 20
246.016438
 30
0.0
  0
SPLINE
  5
152
100
AcDbEntity
  8
Layer_1
 62
7
100
AcDbSpline
 70
8
 71
3
 72
8
 73
4
 74
0
 40
0
 40
0
 40
0
 40
0
 40
1
 40
1
 40
1
 40
1
 10
104.002667
 20
246.016438
 30
0.0
 10
103.493976
 20
247.273325
 30
0.0
 10
102.816664
 20
248.447779
 30
0.0
 10
101.993839
 20
249.538024
 30
0.0
  0
SPLINE
  5
153
100
AcDbEntity
  8
Layer_1
 62
7
100
AcDbSpline
 70
8
 71
3
 72
8
 73
4
 74
0
 40
0
 40
0
 40
0
 40
0
 40
1
 40
1
 40
1
 40
1
 10
101.993839
 20
249.538024
 30
0.0
 10
101.171011
 20
250.628268
 30
0.0
 10
100.202671
 20
251.634301
 30
0.0
 10
99.111915
 20
252.554342
 30
0.0
  0
SPLINE
  5
154
100
AcDbEntity
  8
Layer_1
 62
7
100
AcDbSpline
 70
8
 71
3
 72
8
 73
4
 74
0
 40
0
 40
0
 40
0
 40
0
 40
1
 40
1
 40
1
 40
1
 10
99.111915
 20
252.554342
 30
0.0
 10
98.021160
 20
253.474386
 30
0.0
 10
96.807992
 20
254.308440
 30
0.0
 10
95.495514
 20
255.054724
 30
0.0
  0
SPLINE
  5
155
100
AcDbEntity
  8
Layer_1
 62
7
100
AcDbSpline
 70
8
 71
3
 72
8
 73
4
 74
0
 40
0
 40
0
 40
0
 40
0
 40
1
 40
1
 40
1
 40
1
 10
95.495514
 20
255.054724
 30
0.0
 10
94.183032
 20
255.801010
 30
0.0
 10
92.771242
 20
256.459526
 30
0.0
 10
91.283241
 20
257.028494
 30
0.0
  0
SPLINE
  5
156
100
AcDbEntity
  8
Layer_1
 62
7
100
AcDbSpline
 70
8
 71
3
 72
8
 73
4
 74
0
 40
0
 40
0
 40
0
 40
0
 40
1
 40
1
 40
1
 40
1
 10
91.283241
 20
257.028494
 30
0.0
 10
89.795243
 20
257.597462
 30
0.0
 10
88.231032
 20
258.076884
 30
0.0
 10
86.613716
 20
258.464981
 30
0.0
  0
SPLINE
  5
157
100
AcDbEntity
  8
Layer_1
 62
7
100
AcDbSpline
 70
8
 71
3
 72
8
 73
4
 74
0
 40
0
 40
0
 40
0
 40
0
 40
1
 40
1
 40
1
 40
1
 10
86.613716
 20
258.464981
 30
0.0
 10
84.996400
 20
258.853077
 30
0.0
 10
83.325977
 20
259.149847
 30
0.0
 10
81.625547
 20
259.353512
 30
0.0
  0
SPLINE
  5
158
100
AcDbEntity
  8
Layer_1
 62
7
100
AcDbSpline
 70
8
 71
3
 72
8
 73
4
 74
0
 40
0
 40
0
 40
0
 40
0
 40
1
 40
1
 40
1
 40
1
 10
81.625547
 20
259.353512
 30
0.0
 10
79.925118
 20
259.557178
 30
0.0
 10
78.194685
 20
259.667739
 30
0.0
 10
76.457349
 20
259.683416
 30
0.0
  0
LINE
  5
159
100
AcDbEntity
  8
Layer_1
 62
7
100
AcDbLine
 10
76.457349
 20
259.683416
 30
0.0
 11
76.457349
 21
259.683416
 31
0.0
  0
ENDSEC
  0
SECTION
  2
OBJECTS
  0
DICTIONARY
  5
C
330
0
100
AcDbDictionary
  3
ACAD_GROUP
350
D
  3
ACAD_MLINESTYLE
350
17
  0
DICTIONARY
  5
D
330
C
100
AcDbDictionary
  0
DICTIONARY
  5
1A
330
C
100
AcDbDictionary
  0
DICTIONARY
  5
17
330
C
100
AcDbDictionary
  3
STANDARD
350
18
  0
DICTIONARY
  5
19
330
C
100
AcDbDictionary
  0
ENDSEC
  0
EOF
