  0
SECTION
  2
HEADER
  9
$ACADVER
  1
AC1014
  9
$HANDSEED
  5
FFFF
  9
$MEASUREMENT
 70
     1
  0
ENDSEC
  0
SECTION
  2
TABLES
  0
TABLE
  2
VPORT
  5
8
330
0
100
AcDbSymbolTable
 70
     4
  0
VPORT
  5
2E
330
8
100
AcDbSymbolTableRecord
100
AcDbViewportTableRecord
  2
*ACTIVE
 70
     0
 10
0.0
 20
0.0
 11
1.0
 21
1.0
 12
210.0
 22
148.5
 13
0.0
 23
0.0
 14
10.0
 24
10.0
 15
10.0
 25
10.0
 16
0.0
 26
0.0
 36
1.0
 17
0.0
 27
0.0
 37
0.0
 40
341.0
 41
1.24
 42
50.0
 43
0.0
 44
0.0
 50
0.0
 51
0.0
 71
     0
 72
   100
 73
     1
 74
     3
 75
     0
 76
     0
 77
     0
 78
     0
  0
ENDTAB
  0
TABLE
  2
LTYPE
  5
5
330
0
100
AcDbSymbolTable
 70
     1
  0
LTYPE
  5
14
330
5
100
AcDbSymbolTableRecord
100
AcDbLinetypeTableRecord
  2
BYBLOCK
 70
     0
  3

 72
    65
 73
     0
 40
0.0
  0
LTYPE
  5
15
330
5
100
AcDbSymbolTableRecord
100
AcDbLinetypeTableRecord
  2
BYLAYER
 70
     0
  3

 72
    65
 73
     0
 40
0.0
  0
LTYPE
  5
16
330
5
100
AcDbSymbolTableRecord
100
AcDbLinetypeTableRecord
  2
CONTINUOUS
 70
     0
  3
Solid line
 72
    65
 73
     0
 40
0.0
  0
ENDTAB
  0
TABLE
  2
LAYER
  5
2
100
AcDbSymbolTable
 70
2
  0
LAYER
  5
50
100
AcDbSymbolTableRecord
100
AcDbLayerTableRecord
  2
0
 70
0
  6
CONTINUOUS
  0
LAYER
  5
51
100
AcDbSymbolTableRecord
100
AcDbLayerTableRecord
  2
Layer_1
 70
0
  6
CONTINUOUS
  0
ENDTAB
  0
TABLE
  2
STYLE
  5
3
330
0
100
AcDbSymbolTable
 70
     1
  0
STYLE
  5
11
330
3
100
AcDbSymbolTableRecord
100
AcDbTextStyleTableRecord
  2
STANDARD
 70
     0
 40
0.0
 41
1.0
 50
0.0
 71
     0
 42
2.5
  3
txt
  4

  0
ENDTAB
  0
TABLE
  2
VIEW
  5
6
330
0
100
AcDbSymbolTable
 70
     0
  0
ENDTAB
  0
TABLE
  2
UCS
  5
7
330
0
100
AcDbSymbolTable
 70
     0
  0
ENDTAB
  0
TABLE
  2
APPID
  5
9
330
0
100
AcDbSymbolTable
 70
     2
  0
APPID
  5
12
330
9
100
AcDbSymbolTableRecord
100
AcDbRegAppTableRecord
  2
ACAD
 70
     0
  0
ENDTAB
  0
TABLE
  2
DIMSTYLE
  5
A
330
0
100
AcDbSymbolTable
 70
     1
  0
DIMSTYLE
105
27
330
A
100
AcDbSymbolTableRecord
100
AcDbDimStyleTableRecord
  2
ISO-25
 70
     0
  3

  4

  5

  6

  7

 40
1.0
 41
2.5
 42
0.625
 43
3.75
 44
1.25
 45
0.0
 46
0.0
 47
0.0
 48
0.0
140
2.5
141
2.5
142
0.0
143
0.03937007874016
144
1.0
145
0.0
146
1.0
147
0.625
 71
     0
 72
     0
 73
     0
 74
     0
 75
     0
 76
     0
 77
     1
 78
     8
170
     0
171
     3
172
     1
173
     0
174
     0
175
     0
176
     0
177
     0
178
     0
270
     2
271
     2
272
     2
273
     2
274
     3
340
11
275
     0
280
     0
281
     0
282
     0
283
     0
284
     8
285
     0
286
     0
287
     3
288
     0
  0
ENDTAB
  0
TABLE
  2
BLOCK_RECORD
  5
1
330
0
100
AcDbSymbolTable
 70
     1
  0
BLOCK_RECORD
  5
1F
330
1
100
AcDbSymbolTableRecord
100
AcDbBlockTableRecord
  2
*MODEL_SPACE
  0
BLOCK_RECORD
  5
1B
330
1
100
AcDbSymbolTableRecord
100
AcDbBlockTableRecord
  2
*PAPER_SPACE
  0
ENDTAB
  0
ENDSEC
  0
SECTION
  2
BLOCKS
  0
BLOCK
  5
20
330
1F
100
AcDbEntity
  8
0
100
AcDbBlockBegin
  2
*MODEL_SPACE
 70
     0
 10
0.0
 20
0.0
 30
0.0
  3
*MODEL_SPACE
  1

  0
ENDBLK
  5
21
330
1F
100
AcDbEntity
  8
0
100
AcDbBlockEnd
  0
BLOCK
  5
1C
330
1B
100
AcDbEntity
 67
     1
  8
0
100
AcDbBlockBegin
  2
*PAPER_SPACE
  1

  0
ENDBLK
  5
1D
330
1B
100
AcDbEntity
 67
     1
  8
0
100
AcDbBlockEnd
  0
ENDSEC
  0
SECTION
  2
ENTITIES
  0
LINE
  5
100
100
AcDbEntity
  8
Layer_1
 62
7
100
AcDbLine
 10
282.000480
 20
540.000000
 30
0.0
 11
282.000480
 21
538.000120
 31
0.0
  0
LINE
  5
101
100
AcDbEntity
  8
Layer_1
 62
7
100
AcDbLine
 10
282.000480
 20
538.000120
 30
0.0
 11
286.000240
 21
538.000120
 31
0.0
  0
LINE
  5
102
100
AcDbEntity
  8
Layer_1
 62
7
100
AcDbLine
 10
286.000240
 20
538.000120
 30
0.0
 11
286.000240
 21
531.000040
 31
0.0
  0
LINE
  5
103
100
AcDbEntity
  8
Layer_1
 62
7
100
AcDbLine
 10
286.000240
 20
531.000040
 30
0.0
 11
282.000480
 21
531.000040
 31
0.0
  0
LINE
  5
104
100
AcDbEntity
  8
Layer_1
 62
7
100
AcDbLine
 10
282.000480
 20
531.000040
 30
0.0
 11
282.000810
 21
527.000220
 31
0.0
  0
LINE
  5
105
100
AcDbEntity
  8
Layer_1
 62
7
100
AcDbLine
 10
282.000810
 20
527.000220
 30
0.0
 11
276.000240
 21
527.000320
 31
0.0
  0
LINE
  5
106
100
AcDbEntity
  8
Layer_1
 62
7
100
AcDbLine
 10
276.000240
 20
527.000320
 30
0.0
 11
276.000240
 21
523.000040
 31
0.0
  0
LINE
  5
107
100
AcDbEntity
  8
Layer_1
 62
7
100
AcDbLine
 10
276.000240
 20
523.000040
 30
0.0
 11
261.000640
 21
523.000040
 31
0.0
  0
LINE
  5
108
100
AcDbEntity
  8
Layer_1
 62
7
100
AcDbLine
 10
261.000640
 20
523.000040
 30
0.0
 11
261.000640
 21
527.000320
 31
0.0
  0
LINE
  5
109
100
AcDbEntity
  8
Layer_1
 62
7
100
AcDbLine
 10
261.000640
 20
527.000320
 30
0.0
 11
251.000210
 21
527.000320
 31
0.0
  0
LINE
  5
10a
100
AcDbEntity
  8
Layer_1
 62
7
100
AcDbLine
 10
251.000210
 20
527.000320
 30
0.0
 11
251.000210
 21
523.000040
 31
0.0
  0
LINE
  5
10b
100
AcDbEntity
  8
Layer_1
 62
7
100
AcDbLine
 10
251.000210
 20
523.000040
 30
0.0
 11
236.000620
 21
523.000040
 31
0.0
  0
LINE
  5
10c
100
AcDbEntity
  8
Layer_1
 62
7
100
AcDbLine
 10
236.000620
 20
523.000040
 30
0.0
 11
236.000620
 21
527.000320
 31
0.0
  0
LINE
  5
10d
100
AcDbEntity
  8
Layer_1
 62
7
100
AcDbLine
 10
236.000620
 20
527.000320
 30
0.0
 11
226.000720
 21
527.000320
 31
0.0
  0
LINE
  5
10e
100
AcDbEntity
  8
Layer_1
 62
7
100
AcDbLine
 10
226.000720
 20
527.000320
 30
0.0
 11
226.000720
 21
523.000040
 31
0.0
  0
LINE
  5
10f
100
AcDbEntity
  8
Layer_1
 62
7
100
AcDbLine
 10
226.000720
 20
523.000040
 30
0.0
 11
211.000600
 21
523.000040
 31
0.0
  0
LINE
  5
110
100
AcDbEntity
  8
Layer_1
 62
7
100
AcDbLine
 10
211.000600
 20
523.000040
 30
0.0
 11
211.000600
 21
527.000320
 31
0.0
  0
LINE
  5
111
100
AcDbEntity
  8
Layer_1
 62
7
100
AcDbLine
 10
211.000600
 20
527.000320
 30
0.0
 11
201.000690
 21
527.000320
 31
0.0
  0
LINE
  5
112
100
AcDbEntity
  8
Layer_1
 62
7
100
AcDbLine
 10
201.000690
 20
527.000320
 30
0.0
 11
201.000690
 21
523.000040
 31
0.0
  0
LINE
  5
113
100
AcDbEntity
  8
Layer_1
 62
7
100
AcDbLine
 10
201.000690
 20
523.000040
 30
0.0
 11
186.000570
 21
523.000040
 31
0.0
  0
LINE
  5
114
100
AcDbEntity
  8
Layer_1
 62
7
100
AcDbLine
 10
186.000570
 20
523.000040
 30
0.0
 11
186.000570
 21
527.000320
 31
0.0
  0
LINE
  5
115
100
AcDbEntity
  8
Layer_1
 62
7
100
AcDbLine
 10
186.000570
 20
527.000320
 30
0.0
 11
180.000330
 21
527.000220
 31
0.0
  0
LINE
  5
116
100
AcDbEntity
  8
Layer_1
 62
7
100
AcDbLine
 10
180.000330
 20
527.000220
 30
0.0
 11
180.000000
 21
531.000040
 31
0.0
  0
LINE
  5
117
100
AcDbEntity
  8
Layer_1
 62
7
100
AcDbLine
 10
180.000000
 20
531.000040
 30
0.0
 11
176.000240
 21
531.000040
 31
0.0
  0
LINE
  5
118
100
AcDbEntity
  8
Layer_1
 62
7
100
AcDbLine
 10
176.000240
 20
531.000040
 30
0.0
 11
176.000240
 21
538.000120
 31
0.0
  0
LINE
  5
119
100
AcDbEntity
  8
Layer_1
 62
7
100
AcDbLine
 10
176.000240
 20
538.000120
 30
0.0
 11
180.000000
 21
538.000120
 31
0.0
  0
LINE
  5
11a
100
AcDbEntity
  8
Layer_1
 62
7
100
AcDbLine
 10
180.000000
 20
538.000120
 30
0.0
 11
180.000000
 21
540.000000
 31
0.0
  0
LINE
  5
11b
100
AcDbEntity
  8
Layer_1
 62
7
100
AcDbLine
 10
180.000000
 20
540.000000
 30
0.0
 11
282.000480
 21
540.000000
 31
0.0
  0
SPLINE
  5
11c
100
AcDbEntity
  8
Layer_1
 62
7
100
AcDbSpline
 70
8
 71
3
 72
8
 73
4
 74
0
 40
0
 40
0
 40
0
 40
0
 40
1
 40
1
 40
1
 40
1
 10
275.999910
 20
534.500180
 30
0.0
 10
275.171760
 20
534.499990
 30
0.0
 10
274.500450
 20
533.828680
 30
0.0
 10
274.500260
 20
533.000530
 30
0.0
  0
SPLINE
  5
11d
100
AcDbEntity
  8
Layer_1
 62
7
100
AcDbSpline
 70
8
 71
3
 72
8
 73
4
 74
0
 40
0
 40
0
 40
0
 40
0
 40
1
 40
1
 40
1
 40
1
 10
274.500260
 20
533.000530
 30
0.0
 10
274.500170
 20
532.172170
 30
0.0
 10
275.171550
 20
531.500550
 30
0.0
 10
275.999910
 20
531.500360
 30
0.0
  0
SPLINE
  5
11e
100
AcDbEntity
  8
Layer_1
 62
7
100
AcDbSpline
 70
8
 71
3
 72
8
 73
4
 74
0
 40
0
 40
0
 40
0
 40
0
 40
1
 40
1
 40
1
 40
1
 10
275.999910
 20
531.500360
 30
0.0
 10
276.828470
 20
531.500270
 30
0.0
 10
277.500170
 20
532.171970
 30
0.0
 10
277.500080
 20
533.000530
 30
0.0
  0
SPLINE
  5
11f
100
AcDbEntity
  8
Layer_1
 62
7
100
AcDbSpline
 70
8
 71
3
 72
8
 73
4
 74
0
 40
0
 40
0
 40
0
 40
0
 40
1
 40
1
 40
1
 40
1
 10
277.500080
 20
533.000530
 30
0.0
 10
277.499890
 20
533.828890
 30
0.0
 10
276.828270
 20
534.500270
 30
0.0
 10
275.999910
 20
534.500180
 30
0.0
  0
LINE
  5
120
100
AcDbEntity
  8
Layer_1
 62
7
100
AcDbLine
 10
275.999910
 20
534.500180
 30
0.0
 11
275.999910
 21
534.500180
 31
0.0
  0
SPLINE
  5
121
100
AcDbEntity
  8
Layer_1
 62
7
100
AcDbSpline
 70
8
 71
3
 72
8
 73
4
 74
0
 40
0
 40
0
 40
0
 40
0
 40
1
 40
1
 40
1
 40
1
 10
186.000240
 20
534.500180
 30
0.0
 10
185.171880
 20
534.500280
 30
0.0
 10
184.500250
 20
533.828890
 30
0.0
 10
184.500060
 20
533.000530
 30
0.0
  0
SPLINE
  5
122
100
AcDbEntity
  8
Layer_1
 62
7
100
AcDbSpline
 70
8
 71
3
 72
8
 73
4
 74
0
 40
0
 40
0
 40
0
 40
0
 40
1
 40
1
 40
1
 40
1
 10
184.500060
 20
533.000530
 30
0.0
 10
184.499970
 20
532.171970
 30
0.0
 10
185.171680
 20
531.500260
 30
0.0
 10
186.000240
 20
531.500360
 30
0.0
  0
SPLINE
  5
123
100
AcDbEntity
  8
Layer_1
 62
7
100
AcDbSpline
 70
8
 71
3
 72
8
 73
4
 74
0
 40
0
 40
0
 40
0
 40
0
 40
1
 40
1
 40
1
 40
1
 10
186.000240
 20
531.500360
 30
0.0
 10
186.828600
 20
531.500550
 30
0.0
 10
187.499980
 20
532.172170
 30
0.0
 10
187.499890
 20
533.000530
 30
0.0
  0
SPLINE
  5
124
100
AcDbEntity
  8
Layer_1
 62
7
100
AcDbSpline
 70
8
 71
3
 72
8
 73
4
 74
0
 40
0
 40
0
 40
0
 40
0
 40
1
 40
1
 40
1
 40
1
 10
187.499890
 20
533.000530
 30
0.0
 10
187.499700
 20
533.828680
 30
0.0
 10
186.828390
 20
534.499990
 30
0.0
 10
186.000240
 20
534.500180
 30
0.0
  0
LINE
  5
125
100
AcDbEntity
  8
Layer_1
 62
7
100
AcDbLine
 10
186.000240
 20
534.500180
 30
0.0
 11
186.000240
 21
534.500180
 31
0.0
  0
LINE
  5
126
100
AcDbEntity
  8
Layer_1
 62
7
100
AcDbLine
 10
174.999700
 20
524.999580
 30
0.0
 11
170.999940
 21
524.999580
 31
0.0
  0
LINE
  5
127
100
AcDbEntity
  8
Layer_1
 62
7
100
AcDbLine
 10
170.999940
 20
524.999580
 30
0.0
 11
170.999940
 21
520.999880
 31
0.0
  0
LINE
  5
128
100
AcDbEntity
  8
Layer_1
 62
7
100
AcDbLine
 10
170.999940
 20
520.999880
 30
0.0
 11
119.000000
 21
520.999880
 31
0.0
  0
LINE
  5
129
100
AcDbEntity
  8
Layer_1
 62
7
100
AcDbLine
 10
119.000000
 20
520.999880
 30
0.0
 11
119.000000
 21
525.999580
 31
0.0
  0
LINE
  5
12a
100
AcDbEntity
  8
Layer_1
 62
7
100
AcDbLine
 10
119.000000
 20
525.999580
 30
0.0
 11
114.999700
 21
525.999580
 31
0.0
  0
LINE
  5
12b
100
AcDbEntity
  8
Layer_1
 62
7
100
AcDbLine
 10
114.999700
 20
525.999580
 30
0.0
 11
114.999700
 21
530.999790
 31
0.0
  0
LINE
  5
12c
100
AcDbEntity
  8
Layer_1
 62
7
100
AcDbLine
 10
114.999700
 20
530.999790
 30
0.0
 11
119.000000
 21
530.999790
 31
0.0
  0
LINE
  5
12d
100
AcDbEntity
  8
Layer_1
 62
7
100
AcDbLine
 10
119.000000
 20
530.999790
 30
0.0
 11
119.000000
 21
536.000000
 31
0.0
  0
SPLINE
  5
12e
100
AcDbEntity
  8
Layer_1
 62
7
100
AcDbSpline
 70
8
 71
3
 72
8
 73
4
 74
0
 40
0
 40
0
 40
0
 40
0
 40
1
 40
1
 40
1
 40
1
 10
119.000000
 20
536.000000
 30
0.0
 10
160.999960
 20
536.000000
 30
0.0
 10
139.999720
 20
550.999300
 30
0.0
 10
161.999710
 20
550.999300
 30
0.0
  0
LINE
  5
12f
100
AcDbEntity
  8
Layer_1
 62
7
100
AcDbLine
 10
161.999710
 20
550.999300
 30
0.0
 11
162.201250
 21
550.999300
 31
0.0
  0
LINE
  5
130
100
AcDbEntity
  8
Layer_1
 62
7
100
AcDbLine
 10
162.201250
 20
550.999300
 30
0.0
 11
162.201250
 21
535.999700
 31
0.0
  0
LINE
  5
131
100
AcDbEntity
  8
Layer_1
 62
7
100
AcDbLine
 10
162.201250
 20
535.999700
 30
0.0
 11
166.201520
 21
535.999700
 31
0.0
  0
LINE
  5
132
100
AcDbEntity
  8
Layer_1
 62
7
100
AcDbLine
 10
166.201520
 20
535.999700
 30
0.0
 11
166.201520
 21
550.999300
 31
0.0
  0
LINE
  5
133
100
AcDbEntity
  8
Layer_1
 62
7
100
AcDbLine
 10
166.201520
 20
550.999300
 30
0.0
 11
174.999700
 21
550.999580
 31
0.0
  0
LINE
  5
134
100
AcDbEntity
  8
Layer_1
 62
7
100
AcDbLine
 10
174.999700
 20
550.999580
 30
0.0
 11
174.999700
 21
532.999580
 31
0.0
  0
LINE
  5
135
100
AcDbEntity
  8
Layer_1
 62
7
100
AcDbLine
 10
174.999700
 20
532.999580
 30
0.0
 11
170.999700
 21
532.999580
 31
0.0
  0
LINE
  5
136
100
AcDbEntity
  8
Layer_1
 62
7
100
AcDbLine
 10
170.999700
 20
532.999580
 30
0.0
 11
170.999940
 21
528.999580
 31
0.0
  0
LINE
  5
137
100
AcDbEntity
  8
Layer_1
 62
7
100
AcDbLine
 10
170.999940
 20
528.999580
 30
0.0
 11
174.999700
 21
528.999580
 31
0.0
  0
LINE
  5
138
100
AcDbEntity
  8
Layer_1
 62
7
100
AcDbLine
 10
174.999700
 20
528.999580
 30
0.0
 11
174.999700
 21
524.999580
 31
0.0
  0
LINE
  5
139
100
AcDbEntity
  8
Layer_1
 62
7
100
AcDbLine
 10
166.999410
 20
525.999280
 30
0.0
 11
166.999410
 21
533.999310
 31
0.0
  0
LINE
  5
13a
100
AcDbEntity
  8
Layer_1
 62
7
100
AcDbLine
 10
166.999410
 20
533.999310
 30
0.0
 11
159.999840
 21
533.999310
 31
0.0
  0
LINE
  5
13b
100
AcDbEntity
  8
Layer_1
 62
7
100
AcDbLine
 10
159.999840
 20
533.999310
 30
0.0
 11
159.999840
 21
525.999280
 31
0.0
  0
LINE
  5
13c
100
AcDbEntity
  8
Layer_1
 62
7
100
AcDbLine
 10
159.999840
 20
525.999280
 30
0.0
 11
166.999410
 21
525.999280
 31
0.0
  0
LINE
  5
13d
100
AcDbEntity
  8
Layer_1
 62
7
100
AcDbLine
 10
150.999870
 20
524.713570
 30
0.0
 11
150.999870
 21
529.285380
 31
0.0
  0
SPLINE
  5
13e
100
AcDbEntity
  8
Layer_1
 62
7
100
AcDbSpline
 70
8
 71
3
 72
8
 73
4
 74
0
 40
0
 40
0
 40
0
 40
0
 40
1
 40
1
 40
1
 40
1
 10
150.999870
 20
529.285380
 30
0.0
 10
150.999870
 20
530.235100
 30
0.0
 10
150.234960
 20
530.999490
 30
0.0
 10
149.285240
 20
530.999490
 30
0.0
  0
LINE
  5
13f
100
AcDbEntity
  8
Layer_1
 62
7
100
AcDbLine
 10
149.285240
 20
530.999490
 30
0.0
 11
140.714200
 21
530.999490
 31
0.0
  0
SPLINE
  5
140
100
AcDbEntity
  8
Layer_1
 62
7
100
AcDbSpline
 70
8
 71
3
 72
8
 73
4
 74
0
 40
0
 40
0
 40
0
 40
0
 40
1
 40
1
 40
1
 40
1
 10
140.714200
 20
530.999490
 30
0.0
 10
139.764470
 20
530.999490
 30
0.0
 10
138.999560
 20
530.235100
 30
0.0
 10
138.999560
 20
529.285380
 30
0.0
  0
LINE
  5
141
100
AcDbEntity
  8
Layer_1
 62
7
100
AcDbLine
 10
138.999560
 20
529.285380
 30
0.0
 11
138.999560
 21
524.713570
 31
0.0
  0
SPLINE
  5
142
100
AcDbEntity
  8
Layer_1
 62
7
100
AcDbSpline
 70
8
 71
3
 72
8
 73
4
 74
0
 40
0
 40
0
 40
0
 40
0
 40
1
 40
1
 40
1
 40
1
 10
138.999560
 20
524.713570
 30
0.0
 10
138.999560
 20
523.763860
 30
0.0
 10
139.764470
 20
522.999460
 30
0.0
 10
140.714200
 20
522.999460
 30
0.0
  0
LINE
  5
143
100
AcDbEntity
  8
Layer_1
 62
7
100
AcDbLine
 10
140.714200
 20
522.999460
 30
0.0
 11
149.285240
 21
522.999460
 31
0.0
  0
SPLINE
  5
144
100
AcDbEntity
  8
Layer_1
 62
7
100
AcDbSpline
 70
8
 71
3
 72
8
 73
4
 74
0
 40
0
 40
0
 40
0
 40
0
 40
1
 40
1
 40
1
 40
1
 10
149.285240
 20
522.999460
 30
0.0
 10
150.234960
 20
522.999460
 30
0.0
 10
150.999870
 20
523.763860
 30
0.0
 10
150.999870
 20
524.713570
 30
0.0
  0
LINE
  5
145
100
AcDbEntity
  8
Layer_1
 62
7
100
AcDbLine
 10
150.999870
 20
524.713570
 30
0.0
 11
150.999870
 21
524.713570
 31
0.0
  0
LINE
  5
146
100
AcDbEntity
  8
Layer_1
 62
7
100
AcDbLine
 10
129.999600
 20
525.999280
 30
0.0
 11
129.999600
 21
529.999550
 31
0.0
  0
LINE
  5
147
100
AcDbEntity
  8
Layer_1
 62
7
100
AcDbLine
 10
129.999600
 20
529.999550
 30
0.0
 11
122.999520
 21
529.999550
 31
0.0
  0
LINE
  5
148
100
AcDbEntity
  8
Layer_1
 62
7
100
AcDbLine
 10
122.999520
 20
529.999550
 30
0.0
 11
122.999520
 21
525.999280
 31
0.0
  0
LINE
  5
149
100
AcDbEntity
  8
Layer_1
 62
7
100
AcDbLine
 10
122.999520
 20
525.999280
 30
0.0
 11
129.999600
 21
525.999280
 31
0.0
  0
LINE
  5
14a
100
AcDbEntity
  8
Layer_1
 62
7
100
AcDbLine
 10
170.000000
 20
575.000100
 30
0.0
 11
170.000000
 21
569.999870
 31
0.0
  0
LINE
  5
14b
100
AcDbEntity
  8
Layer_1
 62
7
100
AcDbLine
 10
170.000000
 20
569.999870
 30
0.0
 11
166.000240
 21
569.999870
 31
0.0
  0
LINE
  5
14c
100
AcDbEntity
  8
Layer_1
 62
7
100
AcDbLine
 10
166.000240
 20
569.999870
 30
0.0
 11
166.000240
 21
565.000170
 31
0.0
  0
LINE
  5
14d
100
AcDbEntity
  8
Layer_1
 62
7
100
AcDbLine
 10
166.000240
 20
565.000170
 30
0.0
 11
170.000000
 21
565.000170
 31
0.0
  0
LINE
  5
14e
100
AcDbEntity
  8
Layer_1
 62
7
100
AcDbLine
 10
170.000000
 20
565.000170
 30
0.0
 11
170.000000
 21
559.999970
 31
0.0
  0
LINE
  5
14f
100
AcDbEntity
  8
Layer_1
 62
7
100
AcDbLine
 10
170.000000
 20
559.999970
 30
0.0
 11
166.000240
 21
559.999970
 31
0.0
  0
SPLINE
  5
150
100
AcDbEntity
  8
Layer_1
 62
7
100
AcDbSpline
 70
8
 71
3
 72
8
 73
4
 74
0
 40
0
 40
0
 40
0
 40
0
 40
1
 40
1
 40
1
 40
1
 10
166.000240
 20
559.999970
 30
0.0
 10
146.000240
 20
559.999970
 30
0.0
 10
149.999910
 20
538.887470
 30
0.0
 10
139.999910
 20
538.887470
 30
0.0
  0
LINE
  5
151
100
AcDbEntity
  8
Layer_1
 62
7
100
AcDbLine
 10
139.999910
 20
538.887470
 30
0.0
 11
89.999860
 21
538.887470
 31
0.0
  0
SPLINE
  5
152
100
AcDbEntity
  8
Layer_1
 62
7
100
AcDbSpline
 70
8
 71
3
 72
8
 73
4
 74
0
 40
0
 40
0
 40
0
 40
0
 40
1
 40
1
 40
1
 40
1
 10
89.999860
 20
538.887470
 30
0.0
 10
79.999860
 20
538.887470
 30
0.0
 10
83.999770
 20
559.999870
 30
0.0
 10
63.999750
 20
559.999870
 30
0.0
  0
LINE
  5
153
100
AcDbEntity
  8
Layer_1
 62
7
100
AcDbLine
 10
63.999750
 20
559.999870
 30
0.0
 11
60.000000
 21
559.999870
 31
0.0
  0
LINE
  5
154
100
AcDbEntity
  8
Layer_1
 62
7
100
AcDbLine
 10
60.000000
 20
559.999870
 30
0.0
 11
60.000000
 21
565.000070
 31
0.0
  0
LINE
  5
155
100
AcDbEntity
  8
Layer_1
 62
7
100
AcDbLine
 10
60.000000
 20
565.000070
 30
0.0
 11
63.999750
 21
565.000070
 31
0.0
  0
LINE
  5
156
100
AcDbEntity
  8
Layer_1
 62
7
100
AcDbLine
 10
63.999750
 20
565.000070
 30
0.0
 11
63.999750
 21
569.999770
 31
0.0
  0
LINE
  5
157
100
AcDbEntity
  8
Layer_1
 62
7
100
AcDbLine
 10
63.999750
 20
569.999770
 30
0.0
 11
60.000000
 21
569.999770
 31
0.0
  0
LINE
  5
158
100
AcDbEntity
  8
Layer_1
 62
7
100
AcDbLine
 10
60.000000
 20
569.999770
 30
0.0
 11
60.000000
 21
575.000000
 31
0.0
  0
LINE
  5
159
100
AcDbEntity
  8
Layer_1
 62
7
100
AcDbLine
 10
60.000000
 20
575.000000
 30
0.0
 11
63.999750
 21
575.000000
 31
0.0
  0
LINE
  5
15a
100
AcDbEntity
  8
Layer_1
 62
7
100
AcDbLine
 10
63.999750
 20
575.000000
 30
0.0
 11
166.000240
 21
575.000100
 31
0.0
  0
LINE
  5
15b
100
AcDbEntity
  8
Layer_1
 62
7
100
AcDbLine
 10
166.000240
 20
575.000100
 30
0.0
 11
170.000000
 21
575.000100
 31
0.0
  0
LINE
  5
15c
100
AcDbEntity
  8
Layer_1
 62
7
100
AcDbLine
 10
159.999910
 20
569.999570
 30
0.0
 11
145.000310
 21
569.999570
 31
0.0
  0
LINE
  5
15d
100
AcDbEntity
  8
Layer_1
 62
7
100
AcDbLine
 10
145.000310
 20
569.999570
 30
0.0
 11
145.000310
 21
565.999810
 31
0.0
  0
LINE
  5
15e
100
AcDbEntity
  8
Layer_1
 62
7
100
AcDbLine
 10
145.000310
 20
565.999810
 30
0.0
 11
159.999910
 21
565.999810
 31
0.0
  0
LINE
  5
15f
100
AcDbEntity
  8
Layer_1
 62
7
100
AcDbLine
 10
159.999910
 20
565.999810
 30
0.0
 11
159.999910
 21
569.999570
 31
0.0
  0
LINE
  5
160
100
AcDbEntity
  8
Layer_1
 62
7
100
AcDbLine
 10
134.999880
 20
569.999570
 30
0.0
 11
120.000290
 21
569.999570
 31
0.0
  0
LINE
  5
161
100
AcDbEntity
  8
Layer_1
 62
7
100
AcDbLine
 10
120.000290
 20
569.999570
 30
0.0
 11
120.000290
 21
565.999810
 31
0.0
  0
LINE
  5
162
100
AcDbEntity
  8
Layer_1
 62
7
100
AcDbLine
 10
120.000290
 20
565.999810
 30
0.0
 11
134.999880
 21
565.999810
 31
0.0
  0
LINE
  5
163
100
AcDbEntity
  8
Layer_1
 62
7
100
AcDbLine
 10
134.999880
 20
565.999810
 30
0.0
 11
134.999880
 21
569.999570
 31
0.0
  0
LINE
  5
164
100
AcDbEntity
  8
Layer_1
 62
7
100
AcDbLine
 10
110.000380
 20
569.999570
 30
0.0
 11
95.000260
 21
569.999570
 31
0.0
  0
LINE
  5
165
100
AcDbEntity
  8
Layer_1
 62
7
100
AcDbLine
 10
95.000260
 20
569.999570
 30
0.0
 11
95.000260
 21
565.999810
 31
0.0
  0
LINE
  5
166
100
AcDbEntity
  8
Layer_1
 62
7
100
AcDbLine
 10
95.000260
 20
565.999810
 30
0.0
 11
110.000380
 21
565.999810
 31
0.0
  0
LINE
  5
167
100
AcDbEntity
  8
Layer_1
 62
7
100
AcDbLine
 10
110.000380
 20
565.999810
 30
0.0
 11
110.000380
 21
569.999570
 31
0.0
  0
LINE
  5
168
100
AcDbEntity
  8
Layer_1
 62
7
100
AcDbLine
 10
85.000350
 20
569.999570
 30
0.0
 11
70.000220
 21
569.999570
 31
0.0
  0
LINE
  5
169
100
AcDbEntity
  8
Layer_1
 62
7
100
AcDbLine
 10
70.000220
 20
569.999570
 30
0.0
 11
70.000220
 21
565.999810
 31
0.0
  0
LINE
  5
16a
100
AcDbEntity
  8
Layer_1
 62
7
100
AcDbLine
 10
70.000220
 20
565.999810
 30
0.0
 11
85.000350
 21
565.999810
 31
0.0
  0
LINE
  5
16b
100
AcDbEntity
  8
Layer_1
 62
7
100
AcDbLine
 10
85.000350
 20
565.999810
 30
0.0
 11
85.000350
 21
569.999570
 31
0.0
  0
SPLINE
  5
16c
100
AcDbEntity
  8
Layer_1
 62
7
100
AcDbSpline
 70
8
 71
3
 72
8
 73
4
 74
0
 40
0
 40
0
 40
0
 40
0
 40
1
 40
1
 40
1
 40
1
 10
137.595400
 20
563.570710
 30
0.0
 10
136.711820
 20
563.570650
 30
0.0
 10
135.995550
 20
562.854380
 30
0.0
 10
135.995500
 20
561.970800
 30
0.0
  0
SPLINE
  5
16d
100
AcDbEntity
  8
Layer_1
 62
7
100
AcDbSpline
 70
8
 71
3
 72
8
 73
4
 74
0
 40
0
 40
0
 40
0
 40
0
 40
1
 40
1
 40
1
 40
1
 10
135.995500
 20
561.970800
 30
0.0
 10
135.995560
 20
561.087220
 30
0.0
 10
136.711820
 20
560.370960
 30
0.0
 10
137.595400
 20
560.370900
 30
0.0
  0
SPLINE
  5
16e
100
AcDbEntity
  8
Layer_1
 62
7
100
AcDbSpline
 70
8
 71
3
 72
8
 73
4
 74
0
 40
0
 40
0
 40
0
 40
0
 40
1
 40
1
 40
1
 40
1
 10
137.595400
 20
560.370900
 30
0.0
 10
138.478980
 20
560.370960
 30
0.0
 10
139.195240
 20
561.087220
 30
0.0
 10
139.195300
 20
561.970800
 30
0.0
  0
SPLINE
  5
16f
100
AcDbEntity
  8
Layer_1
 62
7
100
AcDbSpline
 70
8
 71
3
 72
8
 73
4
 74
0
 40
0
 40
0
 40
0
 40
0
 40
1
 40
1
 40
1
 40
1
 10
139.195300
 20
561.970800
 30
0.0
 10
139.195250
 20
562.854380
 30
0.0
 10
138.478980
 20
563.570650
 30
0.0
 10
137.595400
 20
563.570710
 30
0.0
  0
LINE
  5
170
100
AcDbEntity
  8
Layer_1
 62
7
100
AcDbLine
 10
137.595400
 20
563.570710
 30
0.0
 11
137.595400
 21
563.570710
 31
0.0
  0
SPLINE
  5
171
100
AcDbEntity
  8
Layer_1
 62
7
100
AcDbSpline
 70
8
 71
3
 72
8
 73
4
 74
0
 40
0
 40
0
 40
0
 40
0
 40
1
 40
1
 40
1
 40
1
 10
96.895040
 20
563.570710
 30
0.0
 10
96.011460
 20
563.570650
 30
0.0
 10
95.295190
 20
562.854380
 30
0.0
 10
95.295140
 20
561.970800
 30
0.0
  0
SPLINE
  5
172
100
AcDbEntity
  8
Layer_1
 62
7
100
AcDbSpline
 70
8
 71
3
 72
8
 73
4
 74
0
 40
0
 40
0
 40
0
 40
0
 40
1
 40
1
 40
1
 40
1
 10
95.295140
 20
561.970800
 30
0.0
 10
95.295200
 20
561.087220
 30
0.0
 10
96.011460
 20
560.370960
 30
0.0
 10
96.895040
 20
560.370900
 30
0.0
  0
SPLINE
  5
173
100
AcDbEntity
  8
Layer_1
 62
7
100
AcDbSpline
 70
8
 71
3
 72
8
 73
4
 74
0
 40
0
 40
0
 40
0
 40
0
 40
1
 40
1
 40
1
 40
1
 10
96.895040
 20
560.370900
 30
0.0
 10
97.778820
 20
560.370670
 30
0.0
 10
98.495400
 20
561.087020
 30
0.0
 10
98.495460
 20
561.970800
 30
0.0
  0
SPLINE
  5
174
100
AcDbEntity
  8
Layer_1
 62
7
100
AcDbSpline
 70
8
 71
3
 72
8
 73
4
 74
0
 40
0
 40
0
 40
0
 40
0
 40
1
 40
1
 40
1
 40
1
 10
98.495460
 20
561.970800
 30
0.0
 10
98.495410
 20
562.854580
 30
0.0
 10
97.778820
 20
563.570940
 30
0.0
 10
96.895040
 20
563.570710
 30
0.0
  0
LINE
  5
175
100
AcDbEntity
  8
Layer_1
 62
7
100
AcDbLine
 10
96.895040
 20
563.570710
 30
0.0
 11
96.895040
 21
563.570710
 31
0.0
  0
LINE
  5
176
100
AcDbEntity
  8
Layer_1
 62
7
100
AcDbLine
 10
130.000000
 20
559.999870
 30
0.0
 11
99.999760
 21
559.999870
 31
0.0
  0
LINE
  5
177
100
AcDbEntity
  8
Layer_1
 62
7
100
AcDbLine
 10
99.999760
 20
559.999870
 30
0.0
 11
99.999760
 21
545.999680
 31
0.0
  0
LINE
  5
178
100
AcDbEntity
  8
Layer_1
 62
7
100
AcDbLine
 10
99.999760
 20
545.999680
 30
0.0
 11
130.000000
 21
545.999680
 31
0.0
  0
LINE
  5
179
100
AcDbEntity
  8
Layer_1
 62
7
100
AcDbLine
 10
130.000000
 20
545.999680
 30
0.0
 11
130.000000
 21
559.999870
 31
0.0
  0
SPLINE
  5
17a
100
AcDbEntity
  8
Layer_1
 62
7
100
AcDbSpline
 70
8
 71
3
 72
8
 73
4
 74
0
 40
0
 40
0
 40
0
 40
0
 40
1
 40
1
 40
1
 40
1
 10
137.595400
 20
545.870490
 30
0.0
 10
136.711830
 20
545.870430
 30
0.0
 10
135.995560
 20
545.154170
 30
0.0
 10
135.995500
 20
544.270600
 30
0.0
  0
SPLINE
  5
17b
100
AcDbEntity
  8
Layer_1
 62
7
100
AcDbSpline
 70
8
 71
3
 72
8
 73
4
 74
0
 40
0
 40
0
 40
0
 40
0
 40
1
 40
1
 40
1
 40
1
 10
135.995500
 20
544.270600
 30
0.0
 10
135.995550
 20
543.387020
 30
0.0
 10
136.711820
 20
542.670750
 30
0.0
 10
137.595400
 20
542.670690
 30
0.0
  0
SPLINE
  5
17c
100
AcDbEntity
  8
Layer_1
 62
7
100
AcDbSpline
 70
8
 71
3
 72
8
 73
4
 74
0
 40
0
 40
0
 40
0
 40
0
 40
1
 40
1
 40
1
 40
1
 10
137.595400
 20
542.670690
 30
0.0
 10
138.478980
 20
542.670750
 30
0.0
 10
139.195250
 20
543.387020
 30
0.0
 10
139.195300
 20
544.270600
 30
0.0
  0
SPLINE
  5
17d
100
AcDbEntity
  8
Layer_1
 62
7
100
AcDbSpline
 70
8
 71
3
 72
8
 73
4
 74
0
 40
0
 40
0
 40
0
 40
0
 40
1
 40
1
 40
1
 40
1
 10
139.195300
 20
544.270600
 30
0.0
 10
139.195240
 20
545.154170
 30
0.0
 10
138.478970
 20
545.870430
 30
0.0
 10
137.595400
 20
545.870490
 30
0.0
  0
LINE
  5
17e
100
AcDbEntity
  8
Layer_1
 62
7
100
AcDbLine
 10
137.595400
 20
545.870490
 30
0.0
 11
137.595400
 21
545.870490
 31
0.0
  0
SPLINE
  5
17f
100
AcDbEntity
  8
Layer_1
 62
7
100
AcDbSpline
 70
8
 71
3
 72
8
 73
4
 74
0
 40
0
 40
0
 40
0
 40
0
 40
1
 40
1
 40
1
 40
1
 10
96.895040
 20
545.870490
 30
0.0
 10
96.011470
 20
545.870430
 30
0.0
 10
95.295200
 20
545.154170
 30
0.0
 10
95.295140
 20
544.270600
 30
0.0
  0
SPLINE
  5
180
100
AcDbEntity
  8
Layer_1
 62
7
100
AcDbSpline
 70
8
 71
3
 72
8
 73
4
 74
0
 40
0
 40
0
 40
0
 40
0
 40
1
 40
1
 40
1
 40
1
 10
95.295140
 20
544.270600
 30
0.0
 10
95.295190
 20
543.387020
 30
0.0
 10
96.011460
 20
542.670750
 30
0.0
 10
96.895040
 20
542.670690
 30
0.0
  0
SPLINE
  5
181
100
AcDbEntity
  8
Layer_1
 62
7
100
AcDbSpline
 70
8
 71
3
 72
8
 73
4
 74
0
 40
0
 40
0
 40
0
 40
0
 40
1
 40
1
 40
1
 40
1
 10
96.895040
 20
542.670690
 30
0.0
 10
97.778820
 20
542.670460
 30
0.0
 10
98.495410
 20
543.386820
 30
0.0
 10
98.495460
 20
544.270600
 30
0.0
  0
SPLINE
  5
182
100
AcDbEntity
  8
Layer_1
 62
7
100
AcDbSpline
 70
8
 71
3
 72
8
 73
4
 74
0
 40
0
 40
0
 40
0
 40
0
 40
1
 40
1
 40
1
 40
1
 10
98.495460
 20
544.270600
 30
0.0
 10
98.495400
 20
545.154380
 30
0.0
 10
97.778820
 20
545.870720
 30
0.0
 10
96.895040
 20
545.870490
 30
0.0
  0
LINE
  5
183
100
AcDbEntity
  8
Layer_1
 62
7
100
AcDbLine
 10
96.895040
 20
545.870490
 30
0.0
 11
96.895040
 21
545.870490
 31
0.0
  0
LINE
  5
184
100
AcDbEntity
  8
Layer_1
 62
7
100
AcDbLine
 10
175.000000
 20
563.000000
 30
0.0
 11
175.000000
 21
567.000000
 31
0.0
  0
LINE
  5
185
100
AcDbEntity
  8
Layer_1
 62
7
100
AcDbLine
 10
175.000000
 20
567.000000
 30
0.0
 11
178.999750
 21
567.000000
 31
0.0
  0
LINE
  5
186
100
AcDbEntity
  8
Layer_1
 62
7
100
AcDbLine
 10
178.999750
 20
567.000000
 30
0.0
 11
178.999750
 21
571.000000
 31
0.0
  0
LINE
  5
187
100
AcDbEntity
  8
Layer_1
 62
7
100
AcDbLine
 10
178.999750
 20
571.000000
 30
0.0
 11
175.000000
 21
571.000000
 31
0.0
  0
LINE
  5
188
100
AcDbEntity
  8
Layer_1
 62
7
100
AcDbLine
 10
175.000000
 20
571.000000
 30
0.0
 11
175.000000
 21
575.000000
 31
0.0
  0
LINE
  5
189
100
AcDbEntity
  8
Layer_1
 62
7
100
AcDbLine
 10
175.000000
 20
575.000000
 30
0.0
 11
178.999750
 21
575.000000
 31
0.0
  0
LINE
  5
18a
100
AcDbEntity
  8
Layer_1
 62
7
100
AcDbLine
 10
178.999750
 20
575.000000
 30
0.0
 11
281.000250
 21
575.000000
 31
0.0
  0
LINE
  5
18b
100
AcDbEntity
  8
Layer_1
 62
7
100
AcDbLine
 10
281.000250
 20
575.000000
 30
0.0
 11
285.000000
 21
575.000000
 31
0.0
  0
LINE
  5
18c
100
AcDbEntity
  8
Layer_1
 62
7
100
AcDbLine
 10
285.000000
 20
575.000000
 30
0.0
 11
284.999750
 21
571.000000
 31
0.0
  0
LINE
  5
18d
100
AcDbEntity
  8
Layer_1
 62
7
100
AcDbLine
 10
284.999750
 20
571.000000
 30
0.0
 11
281.000000
 21
571.000000
 31
0.0
  0
LINE
  5
18e
100
AcDbEntity
  8
Layer_1
 62
7
100
AcDbLine
 10
281.000000
 20
571.000000
 30
0.0
 11
281.000250
 21
567.000000
 31
0.0
  0
LINE
  5
18f
100
AcDbEntity
  8
Layer_1
 62
7
100
AcDbLine
 10
281.000250
 20
567.000000
 30
0.0
 11
285.000000
 21
567.000000
 31
0.0
  0
LINE
  5
190
100
AcDbEntity
  8
Layer_1
 62
7
100
AcDbLine
 10
285.000000
 20
567.000000
 30
0.0
 11
285.000000
 21
563.000000
 31
0.0
  0
LINE
  5
191
100
AcDbEntity
  8
Layer_1
 62
7
100
AcDbLine
 10
285.000000
 20
563.000000
 30
0.0
 11
281.000000
 21
563.000000
 31
0.0
  0
LINE
  5
192
100
AcDbEntity
  8
Layer_1
 62
7
100
AcDbLine
 10
281.000000
 20
563.000000
 30
0.0
 11
281.000250
 21
559.999880
 31
0.0
  0
LINE
  5
193
100
AcDbEntity
  8
Layer_1
 62
7
100
AcDbLine
 10
281.000250
 20
559.999880
 30
0.0
 11
178.999750
 21
559.999880
 31
0.0
  0
LINE
  5
194
100
AcDbEntity
  8
Layer_1
 62
7
100
AcDbLine
 10
178.999750
 20
559.999880
 30
0.0
 11
179.000000
 21
563.000000
 31
0.0
  0
LINE
  5
195
100
AcDbEntity
  8
Layer_1
 62
7
100
AcDbLine
 10
179.000000
 20
563.000000
 30
0.0
 11
175.000000
 21
563.000000
 31
0.0
  0
LINE
  5
196
100
AcDbEntity
  8
Layer_1
 62
7
100
AcDbLine
 10
185.000110
 20
561.999980
 30
0.0
 11
199.999720
 21
561.999980
 31
0.0
  0
LINE
  5
197
100
AcDbEntity
  8
Layer_1
 62
7
100
AcDbLine
 10
199.999720
 20
561.999980
 30
0.0
 11
199.999720
 21
570.000000
 31
0.0
  0
LINE
  5
198
100
AcDbEntity
  8
Layer_1
 62
7
100
AcDbLine
 10
199.999720
 20
570.000000
 30
0.0
 11
185.000110
 21
570.000000
 31
0.0
  0
LINE
  5
199
100
AcDbEntity
  8
Layer_1
 62
7
100
AcDbLine
 10
185.000110
 20
570.000000
 30
0.0
 11
185.000110
 21
561.999980
 31
0.0
  0
LINE
  5
19a
100
AcDbEntity
  8
Layer_1
 62
7
100
AcDbLine
 10
210.000140
 20
561.999980
 30
0.0
 11
224.999740
 21
561.999980
 31
0.0
  0
LINE
  5
19b
100
AcDbEntity
  8
Layer_1
 62
7
100
AcDbLine
 10
224.999740
 20
561.999980
 30
0.0
 11
224.999740
 21
570.000000
 31
0.0
  0
LINE
  5
19c
100
AcDbEntity
  8
Layer_1
 62
7
100
AcDbLine
 10
224.999740
 20
570.000000
 30
0.0
 11
210.000140
 21
570.000000
 31
0.0
  0
LINE
  5
19d
100
AcDbEntity
  8
Layer_1
 62
7
100
AcDbLine
 10
210.000140
 20
570.000000
 30
0.0
 11
210.000140
 21
561.999980
 31
0.0
  0
LINE
  5
19e
100
AcDbEntity
  8
Layer_1
 62
7
100
AcDbLine
 10
234.999650
 20
561.999980
 30
0.0
 11
249.999760
 21
561.999980
 31
0.0
  0
LINE
  5
19f
100
AcDbEntity
  8
Layer_1
 62
7
100
AcDbLine
 10
249.999760
 20
561.999980
 30
0.0
 11
249.999760
 21
570.000000
 31
0.0
  0
LINE
  5
1a0
100
AcDbEntity
  8
Layer_1
 62
7
100
AcDbLine
 10
249.999760
 20
570.000000
 30
0.0
 11
234.999650
 21
570.000000
 31
0.0
  0
LINE
  5
1a1
100
AcDbEntity
  8
Layer_1
 62
7
100
AcDbLine
 10
234.999650
 20
570.000000
 30
0.0
 11
234.999650
 21
561.999980
 31
0.0
  0
LINE
  5
1a2
100
AcDbEntity
  8
Layer_1
 62
7
100
AcDbLine
 10
259.999670
 20
561.999980
 30
0.0
 11
274.999790
 21
561.999980
 31
0.0
  0
LINE
  5
1a3
100
AcDbEntity
  8
Layer_1
 62
7
100
AcDbLine
 10
274.999790
 20
561.999980
 30
0.0
 11
274.999790
 21
570.000000
 31
0.0
  0
LINE
  5
1a4
100
AcDbEntity
  8
Layer_1
 62
7
100
AcDbLine
 10
274.999790
 20
570.000000
 30
0.0
 11
259.999670
 21
570.000000
 31
0.0
  0
LINE
  5
1a5
100
AcDbEntity
  8
Layer_1
 62
7
100
AcDbLine
 10
259.999670
 20
570.000000
 30
0.0
 11
259.999670
 21
561.999980
 31
0.0
  0
LINE
  5
1a6
100
AcDbEntity
  8
Layer_1
 62
7
100
AcDbLine
 10
55.000303
 20
528.999880
 30
0.0
 11
59.000063
 21
528.999880
 31
0.0
  0
LINE
  5
1a7
100
AcDbEntity
  8
Layer_1
 62
7
100
AcDbLine
 10
59.000063
 20
528.999880
 30
0.0
 11
59.000063
 21
532.999880
 31
0.0
  0
LINE
  5
1a8
100
AcDbEntity
  8
Layer_1
 62
7
100
AcDbLine
 10
59.000063
 20
532.999880
 30
0.0
 11
55.000063
 21
532.999880
 31
0.0
  0
LINE
  5
1a9
100
AcDbEntity
  8
Layer_1
 62
7
100
AcDbLine
 10
55.000063
 20
532.999880
 30
0.0
 11
55.000303
 21
551.000100
 31
0.0
  0
LINE
  5
1aa
100
AcDbEntity
  8
Layer_1
 62
7
100
AcDbLine
 10
55.000303
 20
551.000100
 30
0.0
 11
63.798483
 21
550.999820
 31
0.0
  0
LINE
  5
1ab
100
AcDbEntity
  8
Layer_1
 62
7
100
AcDbLine
 10
63.798483
 20
550.999820
 30
0.0
 11
63.798483
 21
536.000210
 31
0.0
  0
LINE
  5
1ac
100
AcDbEntity
  8
Layer_1
 62
7
100
AcDbLine
 10
63.798483
 20
536.000210
 30
0.0
 11
67.798753
 21
536.000210
 31
0.0
  0
LINE
  5
1ad
100
AcDbEntity
  8
Layer_1
 62
7
100
AcDbLine
 10
67.798753
 20
536.000210
 30
0.0
 11
67.798753
 21
550.999820
 31
0.0
  0
LINE
  5
1ae
100
AcDbEntity
  8
Layer_1
 62
7
100
AcDbLine
 10
67.798753
 20
550.999820
 30
0.0
 11
68.000293
 21
550.999820
 31
0.0
  0
SPLINE
  5
1af
100
AcDbEntity
  8
Layer_1
 62
7
100
AcDbSpline
 70
8
 71
3
 72
8
 73
4
 74
0
 40
0
 40
0
 40
0
 40
0
 40
1
 40
1
 40
1
 40
1
 10
68.000293
 20
550.999820
 30
0.0
 10
90.000273
 20
550.999820
 30
0.0
 10
69.000043
 20
536.000000
 30
0.0
 10
111.000000
 20
536.000000
 30
0.0
  0
LINE
  5
1b0
100
AcDbEntity
  8
Layer_1
 62
7
100
AcDbLine
 10
111.000000
 20
536.000000
 30
0.0
 11
111.000000
 21
530.999780
 31
0.0
  0
LINE
  5
1b1
100
AcDbEntity
  8
Layer_1
 62
7
100
AcDbLine
 10
111.000000
 20
530.999780
 30
0.0
 11
115.000300
 21
530.999780
 31
0.0
  0
LINE
  5
1b2
100
AcDbEntity
  8
Layer_1
 62
7
100
AcDbLine
 10
115.000300
 20
530.999780
 30
0.0
 11
115.000300
 21
526.000100
 31
0.0
  0
LINE
  5
1b3
100
AcDbEntity
  8
Layer_1
 62
7
100
AcDbLine
 10
115.000300
 20
526.000100
 30
0.0
 11
111.000000
 21
526.000100
 31
0.0
  0
LINE
  5
1b4
100
AcDbEntity
  8
Layer_1
 62
7
100
AcDbLine
 10
111.000000
 20
526.000100
 30
0.0
 11
111.000000
 21
520.999880
 31
0.0
  0
LINE
  5
1b5
100
AcDbEntity
  8
Layer_1
 62
7
100
AcDbLine
 10
111.000000
 20
520.999880
 30
0.0
 11
59.000063
 21
520.999880
 31
0.0
  0
LINE
  5
1b6
100
AcDbEntity
  8
Layer_1
 62
7
100
AcDbLine
 10
59.000063
 20
520.999880
 30
0.0
 11
59.000063
 21
525.000100
 31
0.0
  0
LINE
  5
1b7
100
AcDbEntity
  8
Layer_1
 62
7
100
AcDbLine
 10
59.000063
 20
525.000100
 30
0.0
 11
55.000303
 21
525.000100
 31
0.0
  0
LINE
  5
1b8
100
AcDbEntity
  8
Layer_1
 62
7
100
AcDbLine
 10
55.000303
 20
525.000100
 30
0.0
 11
55.000303
 21
528.999880
 31
0.0
  0
LINE
  5
1b9
100
AcDbEntity
  8
Layer_1
 62
7
100
AcDbLine
 10
63.000593
 20
533.999820
 30
0.0
 11
63.000593
 21
525.999770
 31
0.0
  0
LINE
  5
1ba
100
AcDbEntity
  8
Layer_1
 62
7
100
AcDbLine
 10
63.000593
 20
525.999770
 30
0.0
 11
70.000163
 21
525.999770
 31
0.0
  0
LINE
  5
1bb
100
AcDbEntity
  8
Layer_1
 62
7
100
AcDbLine
 10
70.000163
 20
525.999770
 30
0.0
 11
70.000163
 21
533.999820
 31
0.0
  0
LINE
  5
1bc
100
AcDbEntity
  8
Layer_1
 62
7
100
AcDbLine
 10
70.000163
 20
533.999820
 30
0.0
 11
63.000593
 21
533.999820
 31
0.0
  0
LINE
  5
1bd
100
AcDbEntity
  8
Layer_1
 62
7
100
AcDbLine
 10
100.000400
 20
530.000050
 30
0.0
 11
100.000400
 21
525.999770
 31
0.0
  0
LINE
  5
1be
100
AcDbEntity
  8
Layer_1
 62
7
100
AcDbLine
 10
100.000400
 20
525.999770
 30
0.0
 11
107.000480
 21
525.999770
 31
0.0
  0
LINE
  5
1bf
100
AcDbEntity
  8
Layer_1
 62
7
100
AcDbLine
 10
107.000480
 20
525.999770
 30
0.0
 11
107.000480
 21
530.000050
 31
0.0
  0
LINE
  5
1c0
100
AcDbEntity
  8
Layer_1
 62
7
100
AcDbLine
 10
107.000480
 20
530.000050
 30
0.0
 11
100.000400
 21
530.000050
 31
0.0
  0
LINE
  5
1c1
100
AcDbEntity
  8
Layer_1
 62
7
100
AcDbLine
 10
186.000340
 20
559.000420
 30
0.0
 11
186.000340
 21
555.000670
 31
0.0
  0
LINE
  5
1c2
100
AcDbEntity
  8
Layer_1
 62
7
100
AcDbLine
 10
186.000340
 20
555.000670
 30
0.0
 11
179.999890
 21
555.000670
 31
0.0
  0
LINE
  5
1c3
100
AcDbEntity
  8
Layer_1
 62
7
100
AcDbLine
 10
179.999890
 20
555.000670
 30
0.0
 11
179.999760
 21
551.000000
 31
0.0
  0
LINE
  5
1c4
100
AcDbEntity
  8
Layer_1
 62
7
100
AcDbLine
 10
179.999760
 20
551.000000
 30
0.0
 11
176.000000
 21
551.000000
 31
0.0
  0
LINE
  5
1c5
100
AcDbEntity
  8
Layer_1
 62
7
100
AcDbLine
 10
176.000000
 20
551.000000
 30
0.0
 11
176.000000
 21
544.000420
 31
0.0
  0
LINE
  5
1c6
100
AcDbEntity
  8
Layer_1
 62
7
100
AcDbLine
 10
176.000000
 20
544.000420
 30
0.0
 11
179.999760
 21
544.000420
 31
0.0
  0
LINE
  5
1c7
100
AcDbEntity
  8
Layer_1
 62
7
100
AcDbLine
 10
179.999760
 20
544.000420
 30
0.0
 11
179.999760
 21
540.000160
 31
0.0
  0
LINE
  5
1c8
100
AcDbEntity
  8
Layer_1
 62
7
100
AcDbLine
 10
179.999760
 20
540.000160
 30
0.0
 11
282.000250
 21
540.000160
 31
0.0
  0
LINE
  5
1c9
100
AcDbEntity
  8
Layer_1
 62
7
100
AcDbLine
 10
282.000250
 20
540.000160
 30
0.0
 11
282.000250
 21
544.000420
 31
0.0
  0
LINE
  5
1ca
100
AcDbEntity
  8
Layer_1
 62
7
100
AcDbLine
 10
282.000250
 20
544.000420
 30
0.0
 11
286.000000
 21
544.000420
 31
0.0
  0
LINE
  5
1cb
100
AcDbEntity
  8
Layer_1
 62
7
100
AcDbLine
 10
286.000000
 20
544.000420
 30
0.0
 11
286.000000
 21
551.000000
 31
0.0
  0
LINE
  5
1cc
100
AcDbEntity
  8
Layer_1
 62
7
100
AcDbLine
 10
286.000000
 20
551.000000
 30
0.0
 11
282.000250
 21
551.000000
 31
0.0
  0
LINE
  5
1cd
100
AcDbEntity
  8
Layer_1
 62
7
100
AcDbLine
 10
282.000250
 20
551.000000
 30
0.0
 11
282.000380
 21
555.000670
 31
0.0
  0
LINE
  5
1ce
100
AcDbEntity
  8
Layer_1
 62
7
100
AcDbLine
 10
282.000380
 20
555.000670
 30
0.0
 11
276.000000
 21
555.000670
 31
0.0
  0
LINE
  5
1cf
100
AcDbEntity
  8
Layer_1
 62
7
100
AcDbLine
 10
276.000000
 20
555.000670
 30
0.0
 11
276.000000
 21
559.000420
 31
0.0
  0
LINE
  5
1d0
100
AcDbEntity
  8
Layer_1
 62
7
100
AcDbLine
 10
276.000000
 20
559.000420
 30
0.0
 11
260.999890
 21
559.000420
 31
0.0
  0
LINE
  5
1d1
100
AcDbEntity
  8
Layer_1
 62
7
100
AcDbLine
 10
260.999890
 20
559.000420
 30
0.0
 11
260.999890
 21
555.000670
 31
0.0
  0
LINE
  5
1d2
100
AcDbEntity
  8
Layer_1
 62
7
100
AcDbLine
 10
260.999890
 20
555.000670
 30
0.0
 11
250.999970
 21
555.000670
 31
0.0
  0
LINE
  5
1d3
100
AcDbEntity
  8
Layer_1
 62
7
100
AcDbLine
 10
250.999970
 20
555.000670
 30
0.0
 11
250.999970
 21
559.000420
 31
0.0
  0
LINE
  5
1d4
100
AcDbEntity
  8
Layer_1
 62
7
100
AcDbLine
 10
250.999970
 20
559.000420
 30
0.0
 11
235.999870
 21
559.000420
 31
0.0
  0
LINE
  5
1d5
100
AcDbEntity
  8
Layer_1
 62
7
100
AcDbLine
 10
235.999870
 20
559.000420
 30
0.0
 11
235.999870
 21
555.000670
 31
0.0
  0
LINE
  5
1d6
100
AcDbEntity
  8
Layer_1
 62
7
100
AcDbLine
 10
235.999870
 20
555.000670
 30
0.0
 11
225.999960
 21
555.000670
 31
0.0
  0
LINE
  5
1d7
100
AcDbEntity
  8
Layer_1
 62
7
100
AcDbLine
 10
225.999960
 20
555.000670
 30
0.0
 11
225.999960
 21
559.000420
 31
0.0
  0
LINE
  5
1d8
100
AcDbEntity
  8
Layer_1
 62
7
100
AcDbLine
 10
225.999960
 20
559.000420
 30
0.0
 11
211.000350
 21
559.000420
 31
0.0
  0
LINE
  5
1d9
100
AcDbEntity
  8
Layer_1
 62
7
100
AcDbLine
 10
211.000350
 20
559.000420
 30
0.0
 11
211.000350
 21
555.000670
 31
0.0
  0
LINE
  5
1da
100
AcDbEntity
  8
Layer_1
 62
7
100
AcDbLine
 10
211.000350
 20
555.000670
 30
0.0
 11
200.999940
 21
555.000670
 31
0.0
  0
LINE
  5
1db
100
AcDbEntity
  8
Layer_1
 62
7
100
AcDbLine
 10
200.999940
 20
555.000670
 30
0.0
 11
200.999940
 21
559.000420
 31
0.0
  0
LINE
  5
1dc
100
AcDbEntity
  8
Layer_1
 62
7
100
AcDbLine
 10
200.999940
 20
559.000420
 30
0.0
 11
186.000340
 21
559.000420
 31
0.0
  0
SPLINE
  5
1dd
100
AcDbEntity
  8
Layer_1
 62
7
100
AcDbSpline
 70
8
 71
3
 72
8
 73
4
 74
0
 40
0
 40
0
 40
0
 40
0
 40
1
 40
1
 40
1
 40
1
 10
231.000040
 20
550.500280
 30
0.0
 10
231.828600
 20
550.500370
 30
0.0
 10
232.500300
 20
549.828680
 30
0.0
 10
232.500210
 20
549.000120
 30
0.0
  0
SPLINE
  5
1de
100
AcDbEntity
  8
Layer_1
 62
7
100
AcDbSpline
 70
8
 71
3
 72
8
 73
4
 74
0
 40
0
 40
0
 40
0
 40
0
 40
1
 40
1
 40
1
 40
1
 10
232.500210
 20
549.000120
 30
0.0
 10
232.500020
 20
548.171760
 30
0.0
 10
231.828400
 20
547.500380
 30
0.0
 10
231.000040
 20
547.500470
 30
0.0
  0
SPLINE
  5
1df
100
AcDbEntity
  8
Layer_1
 62
7
100
AcDbSpline
 70
8
 71
3
 72
8
 73
4
 74
0
 40
0
 40
0
 40
0
 40
0
 40
1
 40
1
 40
1
 40
1
 10
231.000040
 20
547.500470
 30
0.0
 10
230.171690
 20
547.500380
 30
0.0
 10
229.500070
 20
548.171770
 30
0.0
 10
229.499880
 20
549.000120
 30
0.0
  0
SPLINE
  5
1e0
100
AcDbEntity
  8
Layer_1
 62
7
100
AcDbSpline
 70
8
 71
3
 72
8
 73
4
 74
0
 40
0
 40
0
 40
0
 40
0
 40
1
 40
1
 40
1
 40
1
 10
229.499880
 20
549.000120
 30
0.0
 10
229.499790
 20
549.828670
 30
0.0
 10
230.171490
 20
550.500370
 30
0.0
 10
231.000040
 20
550.500280
 30
0.0
  0
LINE
  5
1e1
100
AcDbEntity
  8
Layer_1
 62
7
100
AcDbLine
 10
231.000040
 20
550.500280
 30
0.0
 11
231.000040
 21
550.500280
 31
0.0
  0
LINE
  5
1e2
100
AcDbEntity
  8
Layer_1
 62
7
100
AcDbLine
 10
183.999740
 20
550.202110
 30
0.0
 11
223.996330
 21
550.202110
 31
0.0
  0
LINE
  5
1e3
100
AcDbEntity
  8
Layer_1
 62
7
100
AcDbLine
 10
223.996330
 20
550.202110
 30
0.0
 11
223.996330
 21
546.201840
 31
0.0
  0
LINE
  5
1e4
100
AcDbEntity
  8
Layer_1
 62
7
100
AcDbLine
 10
223.996330
 20
546.201840
 30
0.0
 11
183.999740
 21
546.201840
 31
0.0
  0
LINE
  5
1e5
100
AcDbEntity
  8
Layer_1
 62
7
100
AcDbLine
 10
183.999740
 20
546.201840
 30
0.0
 11
183.999740
 21
550.202110
 31
0.0
  0
LINE
  5
1e6
100
AcDbEntity
  8
Layer_1
 62
7
100
AcDbLine
 10
237.998900
 20
550.202110
 30
0.0
 11
278.008010
 21
550.202110
 31
0.0
  0
LINE
  5
1e7
100
AcDbEntity
  8
Layer_1
 62
7
100
AcDbLine
 10
278.008010
 20
550.202110
 30
0.0
 11
278.008010
 21
546.201840
 31
0.0
  0
LINE
  5
1e8
100
AcDbEntity
  8
Layer_1
 62
7
100
AcDbLine
 10
278.008010
 20
546.201840
 30
0.0
 11
237.998900
 21
546.201840
 31
0.0
  0
LINE
  5
1e9
100
AcDbEntity
  8
Layer_1
 62
7
100
AcDbLine
 10
237.998900
 20
546.201840
 30
0.0
 11
237.998900
 21
550.202110
 31
0.0
  0
LINE
  5
1ea
100
AcDbEntity
  8
Layer_1
 62
7
100
AcDbLine
 10
293.000320
 20
569.000420
 30
0.0
 11
293.000320
 21
565.000660
 31
0.0
  0
LINE
  5
1eb
100
AcDbEntity
  8
Layer_1
 62
7
100
AcDbLine
 10
293.000320
 20
565.000660
 30
0.0
 11
286.999870
 21
565.000660
 31
0.0
  0
LINE
  5
1ec
100
AcDbEntity
  8
Layer_1
 62
7
100
AcDbLine
 10
286.999870
 20
565.000660
 30
0.0
 11
286.999760
 21
561.000000
 31
0.0
  0
LINE
  5
1ed
100
AcDbEntity
  8
Layer_1
 62
7
100
AcDbLine
 10
286.999760
 20
561.000000
 30
0.0
 11
283.000000
 21
561.000000
 31
0.0
  0
LINE
  5
1ee
100
AcDbEntity
  8
Layer_1
 62
7
100
AcDbLine
 10
283.000000
 20
561.000000
 30
0.0
 11
283.000000
 21
554.000420
 31
0.0
  0
LINE
  5
1ef
100
AcDbEntity
  8
Layer_1
 62
7
100
AcDbLine
 10
283.000000
 20
554.000420
 30
0.0
 11
286.999760
 21
554.000420
 31
0.0
  0
LINE
  5
1f0
100
AcDbEntity
  8
Layer_1
 62
7
100
AcDbLine
 10
286.999760
 20
554.000420
 30
0.0
 11
286.999760
 21
550.000150
 31
0.0
  0
LINE
  5
1f1
100
AcDbEntity
  8
Layer_1
 62
7
100
AcDbLine
 10
286.999760
 20
550.000150
 30
0.0
 11
389.000250
 21
550.000150
 31
0.0
  0
LINE
  5
1f2
100
AcDbEntity
  8
Layer_1
 62
7
100
AcDbLine
 10
389.000250
 20
550.000150
 30
0.0
 11
389.000250
 21
554.000420
 31
0.0
  0
LINE
  5
1f3
100
AcDbEntity
  8
Layer_1
 62
7
100
AcDbLine
 10
389.000250
 20
554.000420
 30
0.0
 11
393.000000
 21
554.000420
 31
0.0
  0
LINE
  5
1f4
100
AcDbEntity
  8
Layer_1
 62
7
100
AcDbLine
 10
393.000000
 20
554.000420
 30
0.0
 11
393.000000
 21
561.000000
 31
0.0
  0
LINE
  5
1f5
100
AcDbEntity
  8
Layer_1
 62
7
100
AcDbLine
 10
393.000000
 20
561.000000
 30
0.0
 11
389.000250
 21
561.000000
 31
0.0
  0
LINE
  5
1f6
100
AcDbEntity
  8
Layer_1
 62
7
100
AcDbLine
 10
389.000250
 20
561.000000
 30
0.0
 11
389.000360
 21
565.000660
 31
0.0
  0
LINE
  5
1f7
100
AcDbEntity
  8
Layer_1
 62
7
100
AcDbLine
 10
389.000360
 20
565.000660
 30
0.0
 11
383.000000
 21
565.000660
 31
0.0
  0
LINE
  5
1f8
100
AcDbEntity
  8
Layer_1
 62
7
100
AcDbLine
 10
383.000000
 20
565.000660
 30
0.0
 11
383.000000
 21
569.000420
 31
0.0
  0
LINE
  5
1f9
100
AcDbEntity
  8
Layer_1
 62
7
100
AcDbLine
 10
383.000000
 20
569.000420
 30
0.0
 11
367.999880
 21
569.000420
 31
0.0
  0
LINE
  5
1fa
100
AcDbEntity
  8
Layer_1
 62
7
100
AcDbLine
 10
367.999880
 20
569.000420
 30
0.0
 11
367.999880
 21
565.000660
 31
0.0
  0
LINE
  5
1fb
100
AcDbEntity
  8
Layer_1
 62
7
100
AcDbLine
 10
367.999880
 20
565.000660
 30
0.0
 11
357.999970
 21
565.000660
 31
0.0
  0
LINE
  5
1fc
100
AcDbEntity
  8
Layer_1
 62
7
100
AcDbLine
 10
357.999970
 20
565.000660
 30
0.0
 11
357.999970
 21
569.000420
 31
0.0
  0
LINE
  5
1fd
100
AcDbEntity
  8
Layer_1
 62
7
100
AcDbLine
 10
357.999970
 20
569.000420
 30
0.0
 11
342.999850
 21
569.000420
 31
0.0
  0
LINE
  5
1fe
100
AcDbEntity
  8
Layer_1
 62
7
100
AcDbLine
 10
342.999850
 20
569.000420
 30
0.0
 11
342.999850
 21
565.000660
 31
0.0
  0
LINE
  5
1ff
100
AcDbEntity
  8
Layer_1
 62
7
100
AcDbLine
 10
342.999850
 20
565.000660
 30
0.0
 11
332.999950
 21
565.000660
 31
0.0
  0
LINE
  5
200
100
AcDbEntity
  8
Layer_1
 62
7
100
AcDbLine
 10
332.999950
 20
565.000660
 30
0.0
 11
332.999950
 21
569.000420
 31
0.0
  0
LINE
  5
201
100
AcDbEntity
  8
Layer_1
 62
7
100
AcDbLine
 10
332.999950
 20
569.000420
 30
0.0
 11
318.000350
 21
569.000420
 31
0.0
  0
LINE
  5
202
100
AcDbEntity
  8
Layer_1
 62
7
100
AcDbLine
 10
318.000350
 20
569.000420
 30
0.0
 11
318.000350
 21
565.000660
 31
0.0
  0
LINE
  5
203
100
AcDbEntity
  8
Layer_1
 62
7
100
AcDbLine
 10
318.000350
 20
565.000660
 30
0.0
 11
307.999920
 21
565.000660
 31
0.0
  0
LINE
  5
204
100
AcDbEntity
  8
Layer_1
 62
7
100
AcDbLine
 10
307.999920
 20
565.000660
 30
0.0
 11
307.999920
 21
569.000420
 31
0.0
  0
LINE
  5
205
100
AcDbEntity
  8
Layer_1
 62
7
100
AcDbLine
 10
307.999920
 20
569.000420
 30
0.0
 11
293.000320
 21
569.000420
 31
0.0
  0
LINE
  5
206
100
AcDbEntity
  8
Layer_1
 62
7
100
AcDbLine
 10
349.236570
 20
561.144170
 30
0.0
 11
356.281100
 21
561.144170
 31
0.0
  0
LINE
  5
207
100
AcDbEntity
  8
Layer_1
 62
7
100
AcDbLine
 10
356.281100
 20
561.144170
 30
0.0
 11
356.281100
 21
560.202120
 31
0.0
  0
LINE
  5
208
100
AcDbEntity
  8
Layer_1
 62
7
100
AcDbLine
 10
356.281100
 20
560.202120
 30
0.0
 11
378.390350
 21
560.202120
 31
0.0
  0
LINE
  5
209
100
AcDbEntity
  8
Layer_1
 62
7
100
AcDbLine
 10
378.390350
 20
560.202120
 30
0.0
 11
378.390350
 21
560.995350
 31
0.0
  0
LINE
  5
20a
100
AcDbEntity
  8
Layer_1
 62
7
100
AcDbLine
 10
378.390350
 20
560.995350
 30
0.0
 11
385.831740
 21
560.995350
 31
0.0
  0
LINE
  5
20b
100
AcDbEntity
  8
Layer_1
 62
7
100
AcDbLine
 10
385.831740
 20
560.995350
 30
0.0
 11
385.831740
 21
555.372950
 31
0.0
  0
LINE
  5
20c
100
AcDbEntity
  8
Layer_1
 62
7
100
AcDbLine
 10
385.831740
 20
555.372950
 30
0.0
 11
378.390350
 21
555.372950
 31
0.0
  0
LINE
  5
20d
100
AcDbEntity
  8
Layer_1
 62
7
100
AcDbLine
 10
378.390350
 20
555.372950
 30
0.0
 11
378.390350
 21
556.201850
 31
0.0
  0
LINE
  5
20e
100
AcDbEntity
  8
Layer_1
 62
7
100
AcDbLine
 10
378.390350
 20
556.201850
 30
0.0
 11
377.117040
 21
556.201850
 31
0.0
  0
LINE
  5
20f
100
AcDbEntity
  8
Layer_1
 62
7
100
AcDbLine
 10
377.117040
 20
556.201850
 30
0.0
 11
377.117040
 21
555.621010
 31
0.0
  0
LINE
  5
210
100
AcDbEntity
  8
Layer_1
 62
7
100
AcDbLine
 10
377.117040
 20
555.621010
 30
0.0
 11
374.157010
 21
555.621010
 31
0.0
  0
LINE
  5
211
100
AcDbEntity
  8
Layer_1
 62
7
100
AcDbLine
 10
374.157010
 20
555.621010
 30
0.0
 11
374.157010
 21
556.201850
 31
0.0
  0
LINE
  5
212
100
AcDbEntity
  8
Layer_1
 62
7
100
AcDbLine
 10
374.157010
 20
556.201850
 30
0.0
 11
360.134100
 21
556.201850
 31
0.0
  0
LINE
  5
213
100
AcDbEntity
  8
Layer_1
 62
7
100
AcDbLine
 10
360.134100
 20
556.201850
 30
0.0
 11
360.134100
 21
555.621010
 31
0.0
  0
LINE
  5
214
100
AcDbEntity
  8
Layer_1
 62
7
100
AcDbLine
 10
360.134100
 20
555.621010
 30
0.0
 11
357.438650
 21
555.621010
 31
0.0
  0
LINE
  5
215
100
AcDbEntity
  8
Layer_1
 62
7
100
AcDbLine
 10
357.438650
 20
555.621010
 30
0.0
 11
357.438650
 21
556.201850
 31
0.0
  0
LINE
  5
216
100
AcDbEntity
  8
Layer_1
 62
7
100
AcDbLine
 10
357.438650
 20
556.201850
 30
0.0
 11
356.281110
 21
556.201850
 31
0.0
  0
LINE
  5
217
100
AcDbEntity
  8
Layer_1
 62
7
100
AcDbLine
 10
356.281110
 20
556.201850
 30
0.0
 11
356.281110
 21
555.356420
 31
0.0
  0
LINE
  5
218
100
AcDbEntity
  8
Layer_1
 62
7
100
AcDbLine
 10
356.281110
 20
555.356420
 30
0.0
 11
349.236580
 21
555.356420
 31
0.0
  0
LINE
  5
219
100
AcDbEntity
  8
Layer_1
 62
7
100
AcDbLine
 10
349.236580
 20
555.356420
 30
0.0
 11
349.236580
 21
556.201850
 31
0.0
  0
LINE
  5
21a
100
AcDbEntity
  8
Layer_1
 62
7
100
AcDbLine
 10
349.236580
 20
556.201850
 30
0.0
 11
344.999110
 21
556.201850
 31
0.0
  0
LINE
  5
21b
100
AcDbEntity
  8
Layer_1
 62
7
100
AcDbLine
 10
344.999110
 20
556.201850
 30
0.0
 11
344.999110
 21
560.202120
 31
0.0
  0
LINE
  5
21c
100
AcDbEntity
  8
Layer_1
 62
7
100
AcDbLine
 10
344.999110
 20
560.202120
 30
0.0
 11
349.236580
 21
560.202120
 31
0.0
  0
LINE
  5
21d
100
AcDbEntity
  8
Layer_1
 62
7
100
AcDbLine
 10
349.236580
 20
560.202120
 30
0.0
 11
349.236570
 21
561.144170
 31
0.0
  0
LINE
  5
21e
100
AcDbEntity
  8
Layer_1
 62
7
100
AcDbLine
 10
290.647900
 20
560.945740
 30
0.0
 11
297.857800
 21
560.945740
 31
0.0
  0
LINE
  5
21f
100
AcDbEntity
  8
Layer_1
 62
7
100
AcDbLine
 10
297.857800
 20
560.945740
 30
0.0
 11
297.857800
 21
560.202120
 31
0.0
  0
LINE
  5
220
100
AcDbEntity
  8
Layer_1
 62
7
100
AcDbLine
 10
297.857800
 20
560.202120
 30
0.0
 11
319.917430
 21
560.202120
 31
0.0
  0
LINE
  5
221
100
AcDbEntity
  8
Layer_1
 62
7
100
AcDbLine
 10
319.917430
 20
560.202120
 30
0.0
 11
319.917430
 21
560.863060
 31
0.0
  0
LINE
  5
222
100
AcDbEntity
  8
Layer_1
 62
7
100
AcDbLine
 10
319.917430
 20
560.863060
 30
0.0
 11
327.077720
 21
560.863060
 31
0.0
  0
LINE
  5
223
100
AcDbEntity
  8
Layer_1
 62
7
100
AcDbLine
 10
327.077720
 20
560.863060
 30
0.0
 11
327.077720
 21
560.202120
 31
0.0
  0
LINE
  5
224
100
AcDbEntity
  8
Layer_1
 62
7
100
AcDbLine
 10
327.077720
 20
560.202120
 30
0.0
 11
330.996340
 21
560.202120
 31
0.0
  0
LINE
  5
225
100
AcDbEntity
  8
Layer_1
 62
7
100
AcDbLine
 10
330.996340
 20
560.202120
 30
0.0
 11
330.996340
 21
557.489620
 31
0.0
  0
LINE
  5
226
100
AcDbEntity
  8
Layer_1
 62
7
100
AcDbLine
 10
330.996340
 20
557.489620
 30
0.0
 11
331.327600
 21
557.489620
 31
0.0
  0
LINE
  5
227
100
AcDbEntity
  8
Layer_1
 62
7
100
AcDbLine
 10
331.327600
 20
557.489620
 30
0.0
 11
331.327600
 21
555.488710
 31
0.0
  0
LINE
  5
228
100
AcDbEntity
  8
Layer_1
 62
7
100
AcDbLine
 10
331.327600
 20
555.488710
 30
0.0
 11
328.582540
 21
555.488710
 31
0.0
  0
LINE
  5
229
100
AcDbEntity
  8
Layer_1
 62
7
100
AcDbLine
 10
328.582540
 20
555.488710
 30
0.0
 11
328.582540
 21
556.201850
 31
0.0
  0
LINE
  5
22a
100
AcDbEntity
  8
Layer_1
 62
7
100
AcDbLine
 10
328.582540
 20
556.201850
 30
0.0
 11
327.077730
 21
556.201850
 31
0.0
  0
LINE
  5
22b
100
AcDbEntity
  8
Layer_1
 62
7
100
AcDbLine
 10
327.077730
 20
556.201850
 30
0.0
 11
327.077730
 21
555.406030
 31
0.0
  0
LINE
  5
22c
100
AcDbEntity
  8
Layer_1
 62
7
100
AcDbLine
 10
327.077730
 20
555.406030
 30
0.0
 11
319.917440
 21
555.406030
 31
0.0
  0
LINE
  5
22d
100
AcDbEntity
  8
Layer_1
 62
7
100
AcDbLine
 10
319.917440
 20
555.406030
 30
0.0
 11
319.917440
 21
556.201850
 31
0.0
  0
LINE
  5
22e
100
AcDbEntity
  8
Layer_1
 62
7
100
AcDbLine
 10
319.917440
 20
556.201850
 30
0.0
 11
301.925760
 21
556.201850
 31
0.0
  0
LINE
  5
22f
100
AcDbEntity
  8
Layer_1
 62
7
100
AcDbLine
 10
301.925760
 20
556.201850
 30
0.0
 11
301.925760
 21
555.687140
 31
0.0
  0
LINE
  5
230
100
AcDbEntity
  8
Layer_1
 62
7
100
AcDbLine
 10
301.925760
 20
555.687140
 30
0.0
 11
299.478370
 21
555.687140
 31
0.0
  0
LINE
  5
231
100
AcDbEntity
  8
Layer_1
 62
7
100
AcDbLine
 10
299.478370
 20
555.687140
 30
0.0
 11
299.478370
 21
556.201850
 31
0.0
  0
LINE
  5
232
100
AcDbEntity
  8
Layer_1
 62
7
100
AcDbLine
 10
299.478370
 20
556.201850
 30
0.0
 11
297.857800
 21
556.201850
 31
0.0
  0
LINE
  5
233
100
AcDbEntity
  8
Layer_1
 62
7
100
AcDbLine
 10
297.857800
 20
556.201850
 30
0.0
 11
297.857800
 21
555.505250
 31
0.0
  0
LINE
  5
234
100
AcDbEntity
  8
Layer_1
 62
7
100
AcDbLine
 10
297.857800
 20
555.505250
 30
0.0
 11
290.647900
 21
555.505250
 31
0.0
  0
LINE
  5
235
100
AcDbEntity
  8
Layer_1
 62
7
100
AcDbLine
 10
290.647900
 20
555.505250
 30
0.0
 11
290.647900
 21
560.945740
 31
0.0
  0
SPLINE
  5
236
100
AcDbEntity
  8
Layer_1
 62
7
100
AcDbSpline
 70
8
 71
3
 72
8
 73
4
 74
0
 40
0
 40
0
 40
0
 40
0
 40
1
 40
1
 40
1
 40
1
 10
338.000050
 20
560.500300
 30
0.0
 10
338.828610
 20
560.500390
 30
0.0
 10
339.500300
 20
559.828690
 30
0.0
 10
339.500210
 20
559.000130
 30
0.0
  0
SPLINE
  5
237
100
AcDbEntity
  8
Layer_1
 62
7
100
AcDbSpline
 70
8
 71
3
 72
8
 73
4
 74
0
 40
0
 40
0
 40
0
 40
0
 40
1
 40
1
 40
1
 40
1
 10
339.500210
 20
559.000130
 30
0.0
 10
339.500020
 20
558.171770
 30
0.0
 10
338.828410
 20
557.500390
 30
0.0
 10
338.000050
 20
557.500480
 30
0.0
  0
SPLINE
  5
238
100
AcDbEntity
  8
Layer_1
 62
7
100
AcDbSpline
 70
8
 71
3
 72
8
 73
4
 74
0
 40
0
 40
0
 40
0
 40
0
 40
1
 40
1
 40
1
 40
1
 10
338.000050
 20
557.500480
 30
0.0
 10
337.171700
 20
557.500390
 30
0.0
 10
336.500070
 20
558.171780
 30
0.0
 10
336.499880
 20
559.000130
 30
0.0
  0
SPLINE
  5
239
100
AcDbEntity
  8
Layer_1
 62
7
100
AcDbSpline
 70
8
 71
3
 72
8
 73
4
 74
0
 40
0
 40
0
 40
0
 40
0
 40
1
 40
1
 40
1
 40
1
 10
336.499880
 20
559.000130
 30
0.0
 10
336.499790
 20
559.828690
 30
0.0
 10
337.171500
 20
560.500390
 30
0.0
 10
338.000050
 20
560.500300
 30
0.0
  0
LINE
  5
23a
100
AcDbEntity
  8
Layer_1
 62
7
100
AcDbLine
 10
338.000050
 20
560.500300
 30
0.0
 11
338.000050
 21
560.500300
 31
0.0
  0
ENDSEC
  0
SECTION
  2
OBJECTS
  0
DICTIONARY
  5
C
330
0
100
AcDbDictionary
  3
ACAD_GROUP
350
D
  3
ACAD_MLINESTYLE
350
17
  0
DICTIONARY
  5
D
330
C
100
AcDbDictionary
  0
DICTIONARY
  5
1A
330
C
100
AcDbDictionary
  0
DICTIONARY
  5
17
330
C
100
AcDbDictionary
  3
STANDARD
350
18
  0
DICTIONARY
  5
19
330
C
100
AcDbDictionary
  0
ENDSEC
  0
EOF
